<svg xmlns="http://www.w3.org/2000/svg" width="940" height="806" viewBox="0 0 940 806" role="img" aria-label="Portfolio — AWS Dev">
  <title>Portfolio — AWS Dev</title>
  
  
  <style>
    .diagram-node { cursor: pointer; transition: opacity 0.25s ease; }
    .diagram-node .node-card { transition: stroke 0.2s ease, stroke-width 0.2s ease; }
    .diagram-node:hover .node-card { stroke: #38bdf8; stroke-width: 2.5px; }
    .diagram-edge { transition: opacity 0.25s ease; }
    .diagram-edge .edge-path { transition: stroke 0.2s ease, stroke-width 0.2s ease; }
    .diagram-edge .edge-flow {
      stroke-dasharray: 4 14;
      animation: tfarch-flow 1.6s linear infinite;
      pointer-events: none;
    }
    .diagram-edge:hover .edge-path,
    .diagram-edge.active .edge-path { stroke: #38bdf8; stroke-width: 2.4px; }
    .diagram-edge:hover .edge-flow,
    .diagram-edge.active .edge-flow { stroke: #7dd3fc; stroke-opacity: 0.9; animation-duration: 0.8s; }
    .diagram-node.dim, .diagram-edge.dim { opacity: 0.12; }
    @keyframes tfarch-flow { to { stroke-dashoffset: -18; } }
    @media (prefers-reduced-motion: reduce) {
      .diagram-edge .edge-flow { animation: none; }
    }
  </style>

  <defs>
    <filter id="node-shadow" x="-10%" y="-10%" width="130%" height="130%">
      <feDropShadow dx="0" dy="4" stdDeviation="6" flood-color="#000" flood-opacity="0.45"/>
    </filter>
    <filter id="node-glow" x="-20%" y="-20%" width="140%" height="140%">
      <feDropShadow dx="0" dy="0" stdDeviation="8" flood-color="#38bdf8" flood-opacity="0.6"/>
    </filter>
    <marker id="arrowhead" markerWidth="8" markerHeight="6" refX="7" refY="3" orient="auto">
      <polygon points="0 0, 8 3, 0 6" fill="#94a3b8" />
    </marker>
  </defs>

  <rect width="940" height="806" fill="#0b1120"/>
  <text x="40" y="36" fill="#f8fafc" font-size="18" font-weight="800" font-family="'Plus Jakarta Sans', 'Segoe UI', system-ui, sans-serif">Portfolio — AWS Dev</text>
  <g transform="translate(0, 26)">
    <g class="containers-layer"></g>
    <g class="edges-layer">
      <g class="diagram-edge" data-source="module.web_app.aws_cloudfront_distribution.site" data-target="module.web_app.aws_s3_bucket.logs">
        <path class="edge-hit" d="M 150 100 C 260 124.4, 480 319.6, 590 344" fill="none" stroke="transparent" stroke-width="14"/>
        <path class="edge-path" d="M 150 100 C 260 124.4, 480 319.6, 590 344" fill="none" stroke="rgba(148, 163, 184, 0.35)" stroke-width="1.8" marker-end="url(#arrowhead)"/>
        <path class="edge-flow" d="M 150 100 C 260 124.4, 480 319.6, 590 344" fill="none" stroke="#94a3b8" stroke-opacity="0.45" stroke-width="2.2" stroke-linecap="round"/>
        
          <rect x="347" y="213" width="46" height="18" rx="4" fill="rgba(15, 23, 42, 0.88)" stroke="rgba(255,255,255,0.1)"/>
          <text x="370" y="225" text-anchor="middle" fill="#cbd5e1" font-size="9" font-family="'JetBrains Mono', ui-monospace, monospace">Origin</text>
        
      </g>
    
      <g class="diagram-edge" data-source="module.web_app.aws_cloudfront_distribution.site" data-target="module.web_app.aws_s3_bucket.site">
        <path class="edge-hit" d="M 150 100 C 315 124.4, 645 319.6, 810 344" fill="none" stroke="transparent" stroke-width="14"/>
        <path class="edge-path" d="M 150 100 C 315 124.4, 645 319.6, 810 344" fill="none" stroke="rgba(148, 163, 184, 0.35)" stroke-width="1.8" marker-end="url(#arrowhead)"/>
        <path class="edge-flow" d="M 150 100 C 315 124.4, 645 319.6, 810 344" fill="none" stroke="#94a3b8" stroke-opacity="0.45" stroke-width="2.2" stroke-linecap="round"/>
        
          <rect x="457" y="213" width="46" height="18" rx="4" fill="rgba(15, 23, 42, 0.88)" stroke="rgba(255,255,255,0.1)"/>
          <text x="480" y="225" text-anchor="middle" fill="#cbd5e1" font-size="9" font-family="'JetBrains Mono', ui-monospace, monospace">Origin</text>
        
      </g>
    </g>
    <g class="nodes-layer">
      <g class="diagram-node"
         data-id="module.github_oidc.data.aws_iam_policy_document.deploy"
         transform="translate(60, 200)"
         opacity="1"
         style="cursor: pointer;">
        <title>deploy — aws_iam_policy_document (noop)</title>
        <rect class="node-card" width="180" height="80" rx="10"
              fill="#111827"
              stroke="rgba(100, 116, 139, 0.5)"
              stroke-width="1.5"
              filter="url(#node-shadow)"/>
        <circle cx="166" cy="14" r="7" fill="#64748b" />
        <text x="166" y="17.5" text-anchor="middle" fill="#fff" font-size="10" font-weight="bold">•</text>
        
        <g transform="translate(12, 23)"><svg viewBox="0 0 64 64" fill="none" xmlns="http://www.w3.org/2000/svg" width="34" height="34">
      <rect width="64" height="64" rx="8" fill="#334155"/>
      <path d="M32 16L46 24V40L32 48L18 40V24L32 16Z" stroke="#94A3B8" stroke-width="2.5" stroke-linejoin="round"/>
      <path d="M18 24L32 32L46 24M32 32V48" stroke="#94A3B8" stroke-width="2" stroke-opacity="0.7"/>
    </svg></g>
        <g transform="translate(56, 26)">
          <text fill="#f8fafc" font-size="12" font-weight="700" font-family="'Plus Jakarta Sans', 'Segoe UI', system-ui, sans-serif">deploy</text>
          <text y="16" fill="#94a3b8" font-size="9.5" font-family="'JetBrains Mono', ui-monospace, monospace">iam_policy_docu…</text>
          <text y="30" fill="#232F3E" font-size="8.5" font-weight="600" font-family="'Plus Jakarta Sans', 'Segoe UI', system-ui, sans-serif">AWS Resource</text>
        </g>
      </g>
    
      <g class="diagram-node"
         data-id="module.github_oidc.aws_iam_role.github_actions"
         transform="translate(280, 200)"
         opacity="1"
         style="cursor: pointer;">
        <title>github_actions — aws_iam_role (create)</title>
        <rect class="node-card" width="180" height="80" rx="10"
              fill="#111827"
              stroke="rgba(16, 185, 129, 0.5)"
              stroke-width="1.5"
              filter="url(#node-shadow)"/>
        <circle cx="166" cy="14" r="7" fill="#10b981" />
        <text x="166" y="17.5" text-anchor="middle" fill="#fff" font-size="10" font-weight="bold">+</text>
        
        <g transform="translate(12, 23)"><svg viewBox="0 0 80 80" version="1.1" xmlns="http://www.w3.org/2000/svg" xmlns:xlink="http://www.w3.org/1999/xlink" width="34" height="34"><defs><linearGradient x1="0%" y1="100%" x2="100%" y2="0%" id="tfarch-aws-iam-linearGradient-1"><stop stop-color="#BD0816" offset="0%"></stop><stop stop-color="#FF5252" offset="100%"></stop></linearGradient></defs><g id="tfarch-aws-iam-Icon-Architecture/64/Arch_AWS-Identity-and-Access-Management_64" stroke="none" stroke-width="1" fill="none" fill-rule="evenodd"><g id="tfarch-aws-iam-Icon-Architecture-BG/64/Security-Identity-Compliance" fill="url(#tfarch-aws-iam-linearGradient-1)"><rect id="tfarch-aws-iam-Rectangle" x="0" y="0" width="80" height="80"></rect></g><path d="M14,59 L66,59 L66,21 L14,21 L14,59 Z M68,20 L68,60 C68,60.552 67.553,61 67,61 L13,61 C12.447,61 12,60.552 12,60 L12,20 C12,19.448 12.447,19 13,19 L67,19 C67.553,19 68,19.448 68,20 L68,20 Z M44,48 L59,48 L59,46 L44,46 L44,48 Z M57,42 L62,42 L62,40 L57,40 L57,42 Z M44,42 L52,42 L52,40 L44,40 L44,42 Z M29,46 C29,45.449 28.552,45 28,45 C27.448,45 27,45.449 27,46 C27,46.551 27.448,47 28,47 C28.552,47 29,46.551 29,46 L29,46 Z M31,46 C31,47.302 30.161,48.401 29,48.816 L29,51 L27,51 L27,48.815 C25.839,48.401 25,47.302 25,46 C25,44.346 26.346,43 28,43 C29.654,43 31,44.346 31,46 L31,46 Z M19,53.993 L36.994,54 L36.996,50 L33,50 L33,48 L36.996,48 L36.998,45 L33,45 L33,43 L36.999,43 L37,40.007 L19.006,40 L19,53.993 Z M22,38.001 L34,38.006 L34,31 C34.001,28.697 31.197,26.677 28,26.675 L27.996,26.675 C24.804,26.675 22.004,28.696 22.002,31 L22,38.001 Z M17,54.992 L17.006,39 C17.006,38.734 17.111,38.48 17.299,38.292 C17.486,38.105 17.741,38 18.006,38 L20,38.001 L20.002,31 C20.004,27.512 23.59,24.675 27.996,24.675 L28,24.675 C32.412,24.677 36.001,27.515 36,31 L36,38.007 L38,38.008 C38.553,38.008 39,38.456 39,39.008 L38.994,55 C38.994,55.266 38.889,55.52 38.701,55.708 C38.514,55.895 38.259,56 37.994,56 L18,55.992 C17.447,55.992 17,55.544 17,54.992 L17,54.992 Z M60,36 L62,36 L62,34 L60,34 L60,36 Z M44,36 L55,36 L55,34 L44,34 L44,36 Z" id="tfarch-aws-iam-AWS-Identity-and-Access-Management_Icon_64_Squid" fill="#FFFFFF"></path></g></svg></g>
        <g transform="translate(56, 26)">
          <text fill="#f8fafc" font-size="12" font-weight="700" font-family="'Plus Jakarta Sans', 'Segoe UI', system-ui, sans-serif">github_actions</text>
          <text y="16" fill="#94a3b8" font-size="9.5" font-family="'JetBrains Mono', ui-monospace, monospace">iam_role</text>
          <text y="30" fill="#DD344C" font-size="8.5" font-weight="600" font-family="'Plus Jakarta Sans', 'Segoe UI', system-ui, sans-serif">AWS IAM</text>
        </g>
      </g>
    
      <g class="diagram-node"
         data-id="module.github_oidc.aws_iam_role_policy.deploy"
         transform="translate(500, 200)"
         opacity="1"
         style="cursor: pointer;">
        <title>deploy — aws_iam_role_policy (create)</title>
        <rect class="node-card" width="180" height="80" rx="10"
              fill="#111827"
              stroke="rgba(16, 185, 129, 0.5)"
              stroke-width="1.5"
              filter="url(#node-shadow)"/>
        <circle cx="166" cy="14" r="7" fill="#10b981" />
        <text x="166" y="17.5" text-anchor="middle" fill="#fff" font-size="10" font-weight="bold">+</text>
        
        <g transform="translate(12, 23)"><svg viewBox="0 0 64 64" fill="none" xmlns="http://www.w3.org/2000/svg" width="34" height="34">
      <rect width="64" height="64" rx="8" fill="#334155"/>
      <path d="M32 16L46 24V40L32 48L18 40V24L32 16Z" stroke="#94A3B8" stroke-width="2.5" stroke-linejoin="round"/>
      <path d="M18 24L32 32L46 24M32 32V48" stroke="#94A3B8" stroke-width="2" stroke-opacity="0.7"/>
    </svg></g>
        <g transform="translate(56, 26)">
          <text fill="#f8fafc" font-size="12" font-weight="700" font-family="'Plus Jakarta Sans', 'Segoe UI', system-ui, sans-serif">deploy</text>
          <text y="16" fill="#94a3b8" font-size="9.5" font-family="'JetBrains Mono', ui-monospace, monospace">iam_role_policy</text>
          <text y="30" fill="#232F3E" font-size="8.5" font-weight="600" font-family="'Plus Jakarta Sans', 'Segoe UI', system-ui, sans-serif">AWS Resource</text>
        </g>
      </g>
    
      <g class="diagram-node"
         data-id="module.web_app.data.aws_iam_policy_document.site_bucket"
         transform="translate(720, 200)"
         opacity="1"
         style="cursor: pointer;">
        <title>site_bucket — aws_iam_policy_document (noop)</title>
        <rect class="node-card" width="180" height="80" rx="10"
              fill="#111827"
              stroke="rgba(100, 116, 139, 0.5)"
              stroke-width="1.5"
              filter="url(#node-shadow)"/>
        <circle cx="166" cy="14" r="7" fill="#64748b" />
        <text x="166" y="17.5" text-anchor="middle" fill="#fff" font-size="10" font-weight="bold">•</text>
        
        <g transform="translate(12, 23)"><svg viewBox="0 0 64 64" fill="none" xmlns="http://www.w3.org/2000/svg" width="34" height="34">
      <rect width="64" height="64" rx="8" fill="#334155"/>
      <path d="M32 16L46 24V40L32 48L18 40V24L32 16Z" stroke="#94A3B8" stroke-width="2.5" stroke-linejoin="round"/>
      <path d="M18 24L32 32L46 24M32 32V48" stroke="#94A3B8" stroke-width="2" stroke-opacity="0.7"/>
    </svg></g>
        <g transform="translate(56, 26)">
          <text fill="#f8fafc" font-size="12" font-weight="700" font-family="'Plus Jakarta Sans', 'Segoe UI', system-ui, sans-serif">site_bucket</text>
          <text y="16" fill="#94a3b8" font-size="9.5" font-family="'JetBrains Mono', ui-monospace, monospace">iam_policy_docu…</text>
          <text y="30" fill="#232F3E" font-size="8.5" font-weight="600" font-family="'Plus Jakarta Sans', 'Segoe UI', system-ui, sans-serif">AWS Resource</text>
        </g>
      </g>
    
      <g class="diagram-node"
         data-id="module.web_app.aws_cloudfront_distribution.site"
         transform="translate(60, 60)"
         opacity="1"
         style="cursor: pointer;">
        <title>site — aws_cloudfront_distribution (create)</title>
        <rect class="node-card" width="180" height="80" rx="10"
              fill="#111827"
              stroke="rgba(16, 185, 129, 0.5)"
              stroke-width="1.5"
              filter="url(#node-shadow)"/>
        <circle cx="166" cy="14" r="7" fill="#10b981" />
        <text x="166" y="17.5" text-anchor="middle" fill="#fff" font-size="10" font-weight="bold">+</text>
        
        <g transform="translate(12, 23)"><svg viewBox="0 0 80 80" version="1.1" xmlns="http://www.w3.org/2000/svg" xmlns:xlink="http://www.w3.org/1999/xlink" width="34" height="34"><defs><linearGradient x1="0%" y1="100%" x2="100%" y2="0%" id="tfarch-aws-cloudfront-linearGradient-1"><stop stop-color="#4D27A8" offset="0%"></stop><stop stop-color="#A166FF" offset="100%"></stop></linearGradient></defs><g id="tfarch-aws-cloudfront-Icon-Architecture/64/Arch_Amazon-CloudFront_64" stroke="none" stroke-width="1" fill="none" fill-rule="evenodd"><g id="tfarch-aws-cloudfront-Icon-Architecture-BG/64/Networking-Content-Delivery" fill="url(#tfarch-aws-cloudfront-linearGradient-1)"><rect id="tfarch-aws-cloudfront-Rectangle" x="0" y="0" width="80" height="80"></rect></g><path d="M55.122,52.123 C55.122,50.469 53.776,49.123 52.122,49.123 C50.468,49.123 49.122,50.469 49.122,52.123 C49.122,53.777 50.468,55.123 52.122,55.123 C53.776,55.123 55.122,53.777 55.122,52.123 L55.122,52.123 Z M57.122,52.123 C57.122,54.88 54.879,57.123 52.122,57.123 C49.365,57.123 47.122,54.88 47.122,52.123 C47.122,49.366 49.365,47.123 52.122,47.123 C54.879,47.123 57.122,49.366 57.122,52.123 L57.122,52.123 Z M30.392,37.692 C30.392,36.038 29.046,34.692 27.392,34.692 C25.737,34.692 24.392,36.038 24.392,37.692 C24.392,39.346 25.737,40.692 27.392,40.692 C29.046,40.692 30.392,39.346 30.392,37.692 L30.392,37.692 Z M32.392,37.692 C32.392,40.449 30.148,42.692 27.392,42.692 C24.635,42.692 22.392,40.449 22.392,37.692 C22.392,34.935 24.635,32.692 27.392,32.692 C30.148,32.692 32.392,34.935 32.392,37.692 L32.392,37.692 Z M39.73,22.007 C39.73,23.661 41.076,25.007 42.73,25.007 C44.385,25.007 45.73,23.661 45.73,22.007 C45.73,20.352 44.385,19.007 42.73,19.007 C41.076,19.007 39.73,20.352 39.73,22.007 L39.73,22.007 Z M37.73,22.007 C37.73,19.25 39.974,17.007 42.73,17.007 C45.487,17.007 47.73,19.25 47.73,22.007 C47.73,24.764 45.487,27.007 42.73,27.007 C39.974,27.007 37.73,24.764 37.73,22.007 L37.73,22.007 Z M66,40 C66,30.727 61.028,22.148 53.012,17.509 C51.575,17.799 50.185,18.196 48.451,18.823 L47.771,16.942 C48.676,16.616 49.486,16.352 50.266,16.126 C47.046,14.737 43.548,14 40,14 C38.311,14 36.649,14.175 35.025,14.492 C36.201,15.18 37.244,15.866 38.257,16.634 L37.048,18.227 C35.62,17.145 34.14,16.228 32.197,15.21 C22.378,18.298 15.306,26.958 14.183,37.128 C16.242,36.711 18.219,36.484 20.414,36.43 L20.463,38.429 C18.163,38.486 16.187,38.73 14.027,39.205 C14.018,39.47 14,39.738 14,40 C14,48.658 18.283,56.636 25.327,61.447 C24.074,57.716 23.45,54.19 23.45,50.746 C23.45,48.782 23.788,47.169 24.145,45.462 C24.228,45.067 24.312,44.665 24.394,44.248 L26.357,44.635 C26.273,45.059 26.187,45.47 26.103,45.873 C25.753,47.545 25.45,48.989 25.45,50.746 C25.45,54.654 26.308,58.695 28.054,63.083 C31.773,65.014 35.789,66 40,66 C42.756,66 45.446,65.56 48.012,64.714 C49.019,62.727 49.766,60.852 50.39,58.699 L52.311,59.256 C51.855,60.826 51.332,62.253 50.709,63.677 C52.323,62.951 53.85,62.053 55.283,61.005 C54.938,60.159 54.568,59.318 54.159,58.499 L55.948,57.604 C56.296,58.3 56.615,59.012 56.92,59.728 C62.705,54.775 66,47.66 66,40 L66,40 Z M68,40 C68,48.727 64.034,56.799 57.121,62.149 C55.409,63.479 53.552,64.583 51.589,65.472 C50.756,65.85 49.908,66.2 49.036,66.494 C46.156,67.493 43.113,68 40,68 C35.4,68 30.832,66.854 26.788,64.686 C17.667,59.806 12,50.347 12,40 C12,39.314 12.018,38.792 12.059,38.309 C12.74,26.625 20.756,16.512 32.001,13.166 C34.562,12.393 37.255,12 40,12 C44.808,12 49.539,13.238 53.684,15.579 C62.513,20.525 68,29.884 68,40 L68,40 Z M37.314,25.463 L36,23.956 C33.758,25.912 32.014,27.989 29.977,31.126 L31.655,32.215 C33.583,29.244 35.223,27.288 37.314,25.463 L37.314,25.463 Z M34.275,38.427 L33.625,40.318 C38.218,41.895 42.225,44.411 46.234,48.236 L47.615,46.789 C43.389,42.758 39.15,40.101 34.275,38.427 L34.275,38.427 Z M47.646,26.668 C51.398,32.39 53.511,38.671 53.925,45.338 L51.929,45.462 C51.536,39.146 49.533,33.192 45.975,27.765 L47.646,26.668 Z" id="tfarch-aws-cloudfront-Amazon-CloudFront_Icon_64_Squid" fill="#FFFFFF"></path></g></svg></g>
        <g transform="translate(56, 26)">
          <text fill="#f8fafc" font-size="12" font-weight="700" font-family="'Plus Jakarta Sans', 'Segoe UI', system-ui, sans-serif">site</text>
          <text y="16" fill="#94a3b8" font-size="9.5" font-family="'JetBrains Mono', ui-monospace, monospace">cloudfront_dist…</text>
          <text y="30" fill="#8C4FFF" font-size="8.5" font-weight="600" font-family="'Plus Jakarta Sans', 'Segoe UI', system-ui, sans-serif">Amazon CloudFront</text>
        </g>
      </g>
    
      <g class="diagram-node"
         data-id="module.web_app.aws_cloudfront_origin_access_control.site"
         transform="translate(280, 60)"
         opacity="1"
         style="cursor: pointer;">
        <title>site — aws_cloudfront_origin_access_control (create)</title>
        <rect class="node-card" width="180" height="80" rx="10"
              fill="#111827"
              stroke="rgba(16, 185, 129, 0.5)"
              stroke-width="1.5"
              filter="url(#node-shadow)"/>
        <circle cx="166" cy="14" r="7" fill="#10b981" />
        <text x="166" y="17.5" text-anchor="middle" fill="#fff" font-size="10" font-weight="bold">+</text>
        
        <g transform="translate(12, 23)"><svg viewBox="0 0 80 80" version="1.1" xmlns="http://www.w3.org/2000/svg" xmlns:xlink="http://www.w3.org/1999/xlink" width="34" height="34"><defs><linearGradient x1="0%" y1="100%" x2="100%" y2="0%" id="tfarch-aws-cloudfront-linearGradient-1"><stop stop-color="#4D27A8" offset="0%"></stop><stop stop-color="#A166FF" offset="100%"></stop></linearGradient></defs><g id="tfarch-aws-cloudfront-Icon-Architecture/64/Arch_Amazon-CloudFront_64" stroke="none" stroke-width="1" fill="none" fill-rule="evenodd"><g id="tfarch-aws-cloudfront-Icon-Architecture-BG/64/Networking-Content-Delivery" fill="url(#tfarch-aws-cloudfront-linearGradient-1)"><rect id="tfarch-aws-cloudfront-Rectangle" x="0" y="0" width="80" height="80"></rect></g><path d="M55.122,52.123 C55.122,50.469 53.776,49.123 52.122,49.123 C50.468,49.123 49.122,50.469 49.122,52.123 C49.122,53.777 50.468,55.123 52.122,55.123 C53.776,55.123 55.122,53.777 55.122,52.123 L55.122,52.123 Z M57.122,52.123 C57.122,54.88 54.879,57.123 52.122,57.123 C49.365,57.123 47.122,54.88 47.122,52.123 C47.122,49.366 49.365,47.123 52.122,47.123 C54.879,47.123 57.122,49.366 57.122,52.123 L57.122,52.123 Z M30.392,37.692 C30.392,36.038 29.046,34.692 27.392,34.692 C25.737,34.692 24.392,36.038 24.392,37.692 C24.392,39.346 25.737,40.692 27.392,40.692 C29.046,40.692 30.392,39.346 30.392,37.692 L30.392,37.692 Z M32.392,37.692 C32.392,40.449 30.148,42.692 27.392,42.692 C24.635,42.692 22.392,40.449 22.392,37.692 C22.392,34.935 24.635,32.692 27.392,32.692 C30.148,32.692 32.392,34.935 32.392,37.692 L32.392,37.692 Z M39.73,22.007 C39.73,23.661 41.076,25.007 42.73,25.007 C44.385,25.007 45.73,23.661 45.73,22.007 C45.73,20.352 44.385,19.007 42.73,19.007 C41.076,19.007 39.73,20.352 39.73,22.007 L39.73,22.007 Z M37.73,22.007 C37.73,19.25 39.974,17.007 42.73,17.007 C45.487,17.007 47.73,19.25 47.73,22.007 C47.73,24.764 45.487,27.007 42.73,27.007 C39.974,27.007 37.73,24.764 37.73,22.007 L37.73,22.007 Z M66,40 C66,30.727 61.028,22.148 53.012,17.509 C51.575,17.799 50.185,18.196 48.451,18.823 L47.771,16.942 C48.676,16.616 49.486,16.352 50.266,16.126 C47.046,14.737 43.548,14 40,14 C38.311,14 36.649,14.175 35.025,14.492 C36.201,15.18 37.244,15.866 38.257,16.634 L37.048,18.227 C35.62,17.145 34.14,16.228 32.197,15.21 C22.378,18.298 15.306,26.958 14.183,37.128 C16.242,36.711 18.219,36.484 20.414,36.43 L20.463,38.429 C18.163,38.486 16.187,38.73 14.027,39.205 C14.018,39.47 14,39.738 14,40 C14,48.658 18.283,56.636 25.327,61.447 C24.074,57.716 23.45,54.19 23.45,50.746 C23.45,48.782 23.788,47.169 24.145,45.462 C24.228,45.067 24.312,44.665 24.394,44.248 L26.357,44.635 C26.273,45.059 26.187,45.47 26.103,45.873 C25.753,47.545 25.45,48.989 25.45,50.746 C25.45,54.654 26.308,58.695 28.054,63.083 C31.773,65.014 35.789,66 40,66 C42.756,66 45.446,65.56 48.012,64.714 C49.019,62.727 49.766,60.852 50.39,58.699 L52.311,59.256 C51.855,60.826 51.332,62.253 50.709,63.677 C52.323,62.951 53.85,62.053 55.283,61.005 C54.938,60.159 54.568,59.318 54.159,58.499 L55.948,57.604 C56.296,58.3 56.615,59.012 56.92,59.728 C62.705,54.775 66,47.66 66,40 L66,40 Z M68,40 C68,48.727 64.034,56.799 57.121,62.149 C55.409,63.479 53.552,64.583 51.589,65.472 C50.756,65.85 49.908,66.2 49.036,66.494 C46.156,67.493 43.113,68 40,68 C35.4,68 30.832,66.854 26.788,64.686 C17.667,59.806 12,50.347 12,40 C12,39.314 12.018,38.792 12.059,38.309 C12.74,26.625 20.756,16.512 32.001,13.166 C34.562,12.393 37.255,12 40,12 C44.808,12 49.539,13.238 53.684,15.579 C62.513,20.525 68,29.884 68,40 L68,40 Z M37.314,25.463 L36,23.956 C33.758,25.912 32.014,27.989 29.977,31.126 L31.655,32.215 C33.583,29.244 35.223,27.288 37.314,25.463 L37.314,25.463 Z M34.275,38.427 L33.625,40.318 C38.218,41.895 42.225,44.411 46.234,48.236 L47.615,46.789 C43.389,42.758 39.15,40.101 34.275,38.427 L34.275,38.427 Z M47.646,26.668 C51.398,32.39 53.511,38.671 53.925,45.338 L51.929,45.462 C51.536,39.146 49.533,33.192 45.975,27.765 L47.646,26.668 Z" id="tfarch-aws-cloudfront-Amazon-CloudFront_Icon_64_Squid" fill="#FFFFFF"></path></g></svg></g>
        <g transform="translate(56, 26)">
          <text fill="#f8fafc" font-size="12" font-weight="700" font-family="'Plus Jakarta Sans', 'Segoe UI', system-ui, sans-serif">site</text>
          <text y="16" fill="#94a3b8" font-size="9.5" font-family="'JetBrains Mono', ui-monospace, monospace">cloudfront_orig…</text>
          <text y="30" fill="#8C4FFF" font-size="8.5" font-weight="600" font-family="'Plus Jakarta Sans', 'Segoe UI', system-ui, sans-serif">Amazon CloudFront</text>
        </g>
      </g>
    
      <g class="diagram-node"
         data-id="module.web_app.aws_cloudfront_response_headers_policy.security"
         transform="translate(500, 60)"
         opacity="1"
         style="cursor: pointer;">
        <title>security — aws_cloudfront_response_headers_policy (create)</title>
        <rect class="node-card" width="180" height="80" rx="10"
              fill="#111827"
              stroke="rgba(16, 185, 129, 0.5)"
              stroke-width="1.5"
              filter="url(#node-shadow)"/>
        <circle cx="166" cy="14" r="7" fill="#10b981" />
        <text x="166" y="17.5" text-anchor="middle" fill="#fff" font-size="10" font-weight="bold">+</text>
        
        <g transform="translate(12, 23)"><svg viewBox="0 0 64 64" fill="none" xmlns="http://www.w3.org/2000/svg" width="34" height="34">
      <rect width="64" height="64" rx="8" fill="#334155"/>
      <path d="M32 16L46 24V40L32 48L18 40V24L32 16Z" stroke="#94A3B8" stroke-width="2.5" stroke-linejoin="round"/>
      <path d="M18 24L32 32L46 24M32 32V48" stroke="#94A3B8" stroke-width="2" stroke-opacity="0.7"/>
    </svg></g>
        <g transform="translate(56, 26)">
          <text fill="#f8fafc" font-size="12" font-weight="700" font-family="'Plus Jakarta Sans', 'Segoe UI', system-ui, sans-serif">security</text>
          <text y="16" fill="#94a3b8" font-size="9.5" font-family="'JetBrains Mono', ui-monospace, monospace">cloudfront_resp…</text>
          <text y="30" fill="#232F3E" font-size="8.5" font-weight="600" font-family="'Plus Jakarta Sans', 'Segoe UI', system-ui, sans-serif">AWS Resource</text>
        </g>
      </g>
    
      <g class="diagram-node"
         data-id="module.web_app.aws_kms_alias.secret"
         transform="translate(60, 304)"
         opacity="1"
         style="cursor: pointer;">
        <title>secret — aws_kms_alias (create)</title>
        <rect class="node-card" width="180" height="80" rx="10"
              fill="#111827"
              stroke="rgba(16, 185, 129, 0.5)"
              stroke-width="1.5"
              filter="url(#node-shadow)"/>
        <circle cx="166" cy="14" r="7" fill="#10b981" />
        <text x="166" y="17.5" text-anchor="middle" fill="#fff" font-size="10" font-weight="bold">+</text>
        
        <g transform="translate(12, 23)"><svg viewBox="0 0 80 80" version="1.1" xmlns="http://www.w3.org/2000/svg" xmlns:xlink="http://www.w3.org/1999/xlink" width="34" height="34"><defs><linearGradient x1="0%" y1="100%" x2="100%" y2="0%" id="tfarch-aws-kms-linearGradient-1"><stop stop-color="#BD0816" offset="0%"></stop><stop stop-color="#FF5252" offset="100%"></stop></linearGradient></defs><g id="tfarch-aws-kms-Icon-Architecture/64/Arch_AWS-Key-Management-Services_64" stroke="none" stroke-width="1" fill="none" fill-rule="evenodd"><g id="tfarch-aws-kms-Icon-Architecture-BG/64/Security-Identity-Compliance" fill="url(#tfarch-aws-kms-linearGradient-1)"><rect id="tfarch-aws-kms-Rectangle" x="0" y="0" width="80" height="80"></rect></g><path d="M51.9968943,52.4963312 L58.9968943,52.4963312 L58.9968943,50.4963312 L51.9968943,50.4963312 L51.9968943,52.4963312 Z M42.9968943,52.4963312 L49.9968943,52.4963312 L49.9968943,50.4963312 L42.9968943,50.4963312 L42.9968943,52.4963312 Z M33.9968943,52.4963312 L40.9968943,52.4963312 L40.9968943,50.4963312 L33.9968943,50.4963312 L33.9968943,52.4963312 Z M44.9968943,44.4963312 C44.9968943,43.3933312 45.8948943,42.4963312 46.9968943,42.4963312 C48.0998943,42.4963312 48.9968943,43.3933312 48.9968943,44.4963312 C48.9968943,45.5993312 48.0998943,46.4963312 46.9968943,46.4963312 C45.8948943,46.4963312 44.9968943,45.5993312 44.9968943,44.4963312 L44.9968943,44.4963312 Z M50.9968943,44.4963312 C50.9968943,42.2903312 49.2038943,40.4963312 46.9968943,40.4963312 C44.7908943,40.4963312 42.9968943,42.2903312 42.9968943,44.4963312 C42.9968943,46.7023312 44.7908943,48.4963312 46.9968943,48.4963312 C49.2038943,48.4963312 50.9968943,46.7023312 50.9968943,44.4963312 L50.9968943,44.4963312 Z M36.9968943,42.4963312 C38.0998943,42.4963312 38.9968943,43.3933312 38.9968943,44.4963312 C38.9968943,45.5993312 38.0998943,46.4963312 36.9968943,46.4963312 C35.8948943,46.4963312 34.9968943,45.5993312 34.9968943,44.4963312 C34.9968943,43.3933312 35.8948943,42.4963312 36.9968943,42.4963312 L36.9968943,42.4963312 Z M36.9968943,48.4963312 C39.2038943,48.4963312 40.9968943,46.7023312 40.9968943,44.4963312 C40.9968943,42.2903312 39.2038943,40.4963312 36.9968943,40.4963312 C34.7908943,40.4963312 32.9968943,42.2903312 32.9968943,44.4963312 C32.9968943,46.7023312 34.7908943,48.4963312 36.9968943,48.4963312 L36.9968943,48.4963312 Z M65.9968943,33.4963312 L65.9968943,56.4963312 C65.9968943,57.0483312 65.5498943,57.4963312 64.9968943,57.4963312 L33.9968943,57.4963312 L33.9968943,55.4963312 L63.9968943,55.4963312 L63.9968943,34.4963312 L41.9968943,34.4963312 L41.9968943,32.4963312 L64.9968943,32.4963312 C65.5498943,32.4963312 65.9968943,32.9443312 65.9968943,33.4963312 L65.9968943,33.4963312 Z M30.6958943,38.5433312 C30.2798943,38.6743312 29.9968943,39.0603312 29.9968943,39.4963312 L29.9968943,60.5363312 L27.5978943,62.5933312 L24.9968943,59.6203312 L24.9968943,56.9963312 C24.9968943,56.7313312 24.8918943,56.4763312 24.7038943,56.2893312 L22.4118943,53.9963312 L24.7038943,51.7033312 C24.8918943,51.5163312 24.9968943,51.2613312 24.9968943,50.9963312 L24.9968943,48.9963312 C24.9968943,48.7313312 24.8918943,48.4763312 24.7038943,48.2893312 L22.4118943,45.9963312 L24.7038943,43.7033312 C24.8918943,43.5163312 24.9968943,43.2613312 24.9968943,42.9963312 L24.9968943,39.5063312 C24.9968943,39.0703312 24.7148943,38.6843312 24.2988943,38.5533312 C19.1568943,36.9233312 16.1168943,31.6343312 17.2298943,26.2493312 C18.0318943,22.3693312 21.0158943,19.2583312 24.8308943,18.3233312 C28.0798943,17.5263312 31.4118943,18.2233312 33.9718943,20.2303312 C36.5298943,22.2373312 37.9968943,25.2503312 37.9968943,28.4963312 C37.9968943,33.0493312 34.9948943,37.1813312 30.6958943,38.5433312 L30.6958943,38.5433312 Z M39.9968943,28.4963312 C39.9968943,24.6323312 38.2508943,21.0453312 35.2058943,18.6563312 C32.1608943,16.2673312 28.2088943,15.4363312 24.3548943,16.3813312 C19.7938943,17.4983312 16.2288943,21.2133312 15.2708943,25.8443312 L15.2708943,25.8453312 C14.0008943,31.9903312 17.2998943,38.0343312 22.9968943,40.2153312 L22.9968943,42.5823312 L20.2898943,45.2893312 C19.8998943,45.6803312 19.8998943,46.3123312 20.2898943,46.7033312 L22.9968943,49.4103312 L22.9968943,50.5823312 L20.2898943,53.2893312 C19.8998943,53.6803312 19.8998943,54.3123312 20.2898943,54.7033312 L22.9968943,57.4103312 L22.9968943,59.9963312 C22.9968943,60.2383312 23.0848943,60.4723312 23.2448943,60.6553312 L26.7448943,64.6553312 C26.9428943,64.8803312 27.2188943,64.9963312 27.4968943,64.9963312 C27.7278943,64.9963312 27.9588943,64.9173312 28.1478943,64.7553312 L31.6478943,61.7553312 C31.8698943,61.5653312 31.9968943,61.2883312 31.9968943,60.9963312 L31.9968943,40.2043312 C36.7428943,38.3723312 39.9968943,33.6623312 39.9968943,28.4963312 L39.9968943,28.4963312 Z M27.4968943,30.8663312 C26.1188943,30.8663312 24.9968943,29.7453312 24.9968943,28.3663312 C24.9968943,26.9883312 26.1188943,25.8663312 27.4968943,25.8663312 C28.8758943,25.8663312 29.9968943,26.9883312 29.9968943,28.3663312 C29.9968943,29.7453312 28.8758943,30.8663312 27.4968943,30.8663312 L27.4968943,30.8663312 Z M27.4968943,23.8663312 C25.0158943,23.8663312 22.9968943,25.8853312 22.9968943,28.3663312 C22.9968943,30.8483312 25.0158943,32.8663312 27.4968943,32.8663312 C29.9788943,32.8663312 31.9968943,30.8483312 31.9968943,28.3663312 C31.9968943,25.8853312 29.9788943,23.8663312 27.4968943,23.8663312 L27.4968943,23.8663312 Z" id="tfarch-aws-kms-AWS-Key-Management-Services_Icon_64_Squid" fill="#FFFFFF"></path></g></svg></g>
        <g transform="translate(56, 26)">
          <text fill="#f8fafc" font-size="12" font-weight="700" font-family="'Plus Jakarta Sans', 'Segoe UI', system-ui, sans-serif">secret</text>
          <text y="16" fill="#94a3b8" font-size="9.5" font-family="'JetBrains Mono', ui-monospace, monospace">kms_alias</text>
          <text y="30" fill="#DD344C" font-size="8.5" font-weight="600" font-family="'Plus Jakarta Sans', 'Segoe UI', system-ui, sans-serif">AWS KMS</text>
        </g>
      </g>
    
      <g class="diagram-node"
         data-id="module.web_app.aws_kms_key.secret"
         transform="translate(280, 304)"
         opacity="1"
         style="cursor: pointer;">
        <title>secret — aws_kms_key (create)</title>
        <rect class="node-card" width="180" height="80" rx="10"
              fill="#111827"
              stroke="rgba(16, 185, 129, 0.5)"
              stroke-width="1.5"
              filter="url(#node-shadow)"/>
        <circle cx="166" cy="14" r="7" fill="#10b981" />
        <text x="166" y="17.5" text-anchor="middle" fill="#fff" font-size="10" font-weight="bold">+</text>
        
        <g transform="translate(12, 23)"><svg viewBox="0 0 80 80" version="1.1" xmlns="http://www.w3.org/2000/svg" xmlns:xlink="http://www.w3.org/1999/xlink" width="34" height="34"><defs><linearGradient x1="0%" y1="100%" x2="100%" y2="0%" id="tfarch-aws-kms-linearGradient-1"><stop stop-color="#BD0816" offset="0%"></stop><stop stop-color="#FF5252" offset="100%"></stop></linearGradient></defs><g id="tfarch-aws-kms-Icon-Architecture/64/Arch_AWS-Key-Management-Services_64" stroke="none" stroke-width="1" fill="none" fill-rule="evenodd"><g id="tfarch-aws-kms-Icon-Architecture-BG/64/Security-Identity-Compliance" fill="url(#tfarch-aws-kms-linearGradient-1)"><rect id="tfarch-aws-kms-Rectangle" x="0" y="0" width="80" height="80"></rect></g><path d="M51.9968943,52.4963312 L58.9968943,52.4963312 L58.9968943,50.4963312 L51.9968943,50.4963312 L51.9968943,52.4963312 Z M42.9968943,52.4963312 L49.9968943,52.4963312 L49.9968943,50.4963312 L42.9968943,50.4963312 L42.9968943,52.4963312 Z M33.9968943,52.4963312 L40.9968943,52.4963312 L40.9968943,50.4963312 L33.9968943,50.4963312 L33.9968943,52.4963312 Z M44.9968943,44.4963312 C44.9968943,43.3933312 45.8948943,42.4963312 46.9968943,42.4963312 C48.0998943,42.4963312 48.9968943,43.3933312 48.9968943,44.4963312 C48.9968943,45.5993312 48.0998943,46.4963312 46.9968943,46.4963312 C45.8948943,46.4963312 44.9968943,45.5993312 44.9968943,44.4963312 L44.9968943,44.4963312 Z M50.9968943,44.4963312 C50.9968943,42.2903312 49.2038943,40.4963312 46.9968943,40.4963312 C44.7908943,40.4963312 42.9968943,42.2903312 42.9968943,44.4963312 C42.9968943,46.7023312 44.7908943,48.4963312 46.9968943,48.4963312 C49.2038943,48.4963312 50.9968943,46.7023312 50.9968943,44.4963312 L50.9968943,44.4963312 Z M36.9968943,42.4963312 C38.0998943,42.4963312 38.9968943,43.3933312 38.9968943,44.4963312 C38.9968943,45.5993312 38.0998943,46.4963312 36.9968943,46.4963312 C35.8948943,46.4963312 34.9968943,45.5993312 34.9968943,44.4963312 C34.9968943,43.3933312 35.8948943,42.4963312 36.9968943,42.4963312 L36.9968943,42.4963312 Z M36.9968943,48.4963312 C39.2038943,48.4963312 40.9968943,46.7023312 40.9968943,44.4963312 C40.9968943,42.2903312 39.2038943,40.4963312 36.9968943,40.4963312 C34.7908943,40.4963312 32.9968943,42.2903312 32.9968943,44.4963312 C32.9968943,46.7023312 34.7908943,48.4963312 36.9968943,48.4963312 L36.9968943,48.4963312 Z M65.9968943,33.4963312 L65.9968943,56.4963312 C65.9968943,57.0483312 65.5498943,57.4963312 64.9968943,57.4963312 L33.9968943,57.4963312 L33.9968943,55.4963312 L63.9968943,55.4963312 L63.9968943,34.4963312 L41.9968943,34.4963312 L41.9968943,32.4963312 L64.9968943,32.4963312 C65.5498943,32.4963312 65.9968943,32.9443312 65.9968943,33.4963312 L65.9968943,33.4963312 Z M30.6958943,38.5433312 C30.2798943,38.6743312 29.9968943,39.0603312 29.9968943,39.4963312 L29.9968943,60.5363312 L27.5978943,62.5933312 L24.9968943,59.6203312 L24.9968943,56.9963312 C24.9968943,56.7313312 24.8918943,56.4763312 24.7038943,56.2893312 L22.4118943,53.9963312 L24.7038943,51.7033312 C24.8918943,51.5163312 24.9968943,51.2613312 24.9968943,50.9963312 L24.9968943,48.9963312 C24.9968943,48.7313312 24.8918943,48.4763312 24.7038943,48.2893312 L22.4118943,45.9963312 L24.7038943,43.7033312 C24.8918943,43.5163312 24.9968943,43.2613312 24.9968943,42.9963312 L24.9968943,39.5063312 C24.9968943,39.0703312 24.7148943,38.6843312 24.2988943,38.5533312 C19.1568943,36.9233312 16.1168943,31.6343312 17.2298943,26.2493312 C18.0318943,22.3693312 21.0158943,19.2583312 24.8308943,18.3233312 C28.0798943,17.5263312 31.4118943,18.2233312 33.9718943,20.2303312 C36.5298943,22.2373312 37.9968943,25.2503312 37.9968943,28.4963312 C37.9968943,33.0493312 34.9948943,37.1813312 30.6958943,38.5433312 L30.6958943,38.5433312 Z M39.9968943,28.4963312 C39.9968943,24.6323312 38.2508943,21.0453312 35.2058943,18.6563312 C32.1608943,16.2673312 28.2088943,15.4363312 24.3548943,16.3813312 C19.7938943,17.4983312 16.2288943,21.2133312 15.2708943,25.8443312 L15.2708943,25.8453312 C14.0008943,31.9903312 17.2998943,38.0343312 22.9968943,40.2153312 L22.9968943,42.5823312 L20.2898943,45.2893312 C19.8998943,45.6803312 19.8998943,46.3123312 20.2898943,46.7033312 L22.9968943,49.4103312 L22.9968943,50.5823312 L20.2898943,53.2893312 C19.8998943,53.6803312 19.8998943,54.3123312 20.2898943,54.7033312 L22.9968943,57.4103312 L22.9968943,59.9963312 C22.9968943,60.2383312 23.0848943,60.4723312 23.2448943,60.6553312 L26.7448943,64.6553312 C26.9428943,64.8803312 27.2188943,64.9963312 27.4968943,64.9963312 C27.7278943,64.9963312 27.9588943,64.9173312 28.1478943,64.7553312 L31.6478943,61.7553312 C31.8698943,61.5653312 31.9968943,61.2883312 31.9968943,60.9963312 L31.9968943,40.2043312 C36.7428943,38.3723312 39.9968943,33.6623312 39.9968943,28.4963312 L39.9968943,28.4963312 Z M27.4968943,30.8663312 C26.1188943,30.8663312 24.9968943,29.7453312 24.9968943,28.3663312 C24.9968943,26.9883312 26.1188943,25.8663312 27.4968943,25.8663312 C28.8758943,25.8663312 29.9968943,26.9883312 29.9968943,28.3663312 C29.9968943,29.7453312 28.8758943,30.8663312 27.4968943,30.8663312 L27.4968943,30.8663312 Z M27.4968943,23.8663312 C25.0158943,23.8663312 22.9968943,25.8853312 22.9968943,28.3663312 C22.9968943,30.8483312 25.0158943,32.8663312 27.4968943,32.8663312 C29.9788943,32.8663312 31.9968943,30.8483312 31.9968943,28.3663312 C31.9968943,25.8853312 29.9788943,23.8663312 27.4968943,23.8663312 L27.4968943,23.8663312 Z" id="tfarch-aws-kms-AWS-Key-Management-Services_Icon_64_Squid" fill="#FFFFFF"></path></g></svg></g>
        <g transform="translate(56, 26)">
          <text fill="#f8fafc" font-size="12" font-weight="700" font-family="'Plus Jakarta Sans', 'Segoe UI', system-ui, sans-serif">secret</text>
          <text y="16" fill="#94a3b8" font-size="9.5" font-family="'JetBrains Mono', ui-monospace, monospace">kms_key</text>
          <text y="30" fill="#DD344C" font-size="8.5" font-weight="600" font-family="'Plus Jakarta Sans', 'Segoe UI', system-ui, sans-serif">AWS KMS</text>
        </g>
      </g>
    
      <g class="diagram-node"
         data-id="module.web_app.aws_s3_bucket.logs"
         transform="translate(500, 304)"
         opacity="1"
         style="cursor: pointer;">
        <title>logs — aws_s3_bucket (create)</title>
        <rect class="node-card" width="180" height="80" rx="10"
              fill="#111827"
              stroke="rgba(16, 185, 129, 0.5)"
              stroke-width="1.5"
              filter="url(#node-shadow)"/>
        <circle cx="166" cy="14" r="7" fill="#10b981" />
        <text x="166" y="17.5" text-anchor="middle" fill="#fff" font-size="10" font-weight="bold">+</text>
        
        <g transform="translate(12, 23)"><svg viewBox="0 0 80 80" version="1.1" xmlns="http://www.w3.org/2000/svg" xmlns:xlink="http://www.w3.org/1999/xlink" width="34" height="34"><defs><linearGradient x1="0%" y1="100%" x2="100%" y2="0%" id="tfarch-aws-s3-linearGradient-1"><stop stop-color="#1B660F" offset="0%"></stop><stop stop-color="#6CAE3E" offset="100%"></stop></linearGradient></defs><g id="tfarch-aws-s3-Icon-Architecture/64/Arch_Amazon-Simple-Storage-Service_64" stroke="none" stroke-width="1" fill="none" fill-rule="evenodd"><g id="tfarch-aws-s3-Rectangle" fill="url(#tfarch-aws-s3-linearGradient-1)"><rect x="0" y="0" width="80" height="80"></rect></g><g id="tfarch-aws-s3-Icon-Service/64/Amazon-Simple-Storage-Service_64" transform="translate(8.000000, 8.000000)" fill="#FFFFFF"><path d="M52.8359,34.8926 L53.2199,32.1886 C56.7609,34.3096 56.8069,35.1856 56.8059132,35.2096 C56.7999,35.2146 56.1959,35.7186 52.8359,34.8926 L52.8359,34.8926 Z M50.8929,34.3526 C44.7729,32.5006 36.2499,28.5906 32.8009,26.9606 C32.8009,26.9466 32.8049,26.9336 32.8049,26.9196 C32.8049,25.5946 31.7269,24.5166 30.4009,24.5166 C29.0769,24.5166 27.9989,25.5946 27.9989,26.9196 C27.9989,28.2446 29.0769,29.3226 30.4009,29.3226 C30.9829,29.3226 31.5109,29.1056 31.9279,28.7606 C35.9859,30.6816 44.4429,34.5346 50.6079,36.3546 L48.1699,53.5606 C48.1629,53.6076 48.1599,53.6546 48.1599,53.7016 C48.1599,55.2166 41.4529,57.9996 30.4939,57.9996 C19.4189,57.9996 12.6409,55.2166 12.6409,53.7016 C12.6409,53.6556 12.6379,53.6106 12.6319,53.5656 L7.5379,16.3586 C11.9469,19.3936 21.4299,20.9996 30.4999,20.9996 C39.5559,20.9996 49.0229,19.3996 53.4409,16.3736 L50.8929,34.3526 Z M6.9999,12.4776 C7.0719,11.1616 14.6339,5.9996 30.4999,5.9996 C46.3639,5.9996 53.9269,11.1606 53.9999,12.4776 L53.9999,12.9266 C53.1299,15.8776 43.3299,18.9996 30.4999,18.9996 C17.6479,18.9996 7.8429,15.8676 6.9999,12.9126 L6.9999,12.4776 Z M55.9999,12.4996 C55.9999,9.0346 46.0659,3.9996 30.4999,3.9996 C14.9339,3.9996 4.9999,9.0346 4.9999,12.4996 L5.0939,13.2536 L10.6419,53.7776 C10.7749,58.3096 22.8609,59.9996 30.4939,59.9996 C39.9659,59.9996 50.0289,57.8216 50.1589,53.7806 L52.5549,36.8836 C53.8879,37.2026 54.9849,37.3656 55.8659,37.3656 C57.0489,37.3656 57.8489,37.0766 58.3339,36.4986 C58.7319,36.0246 58.8839,35.4506 58.7699,34.8396 C58.5109,33.4556 56.8679,31.9636 53.5219,30.0546 L55.8979,13.2926 L55.9999,12.4996 Z" id="tfarch-aws-s3-Amazon-Simple-Storage-Service-Icon_64_Squid"></path></g></g></svg></g>
        <g transform="translate(56, 26)">
          <text fill="#f8fafc" font-size="12" font-weight="700" font-family="'Plus Jakarta Sans', 'Segoe UI', system-ui, sans-serif">logs</text>
          <text y="16" fill="#94a3b8" font-size="9.5" font-family="'JetBrains Mono', ui-monospace, monospace">s3_bucket</text>
          <text y="30" fill="#7AA116" font-size="8.5" font-weight="600" font-family="'Plus Jakarta Sans', 'Segoe UI', system-ui, sans-serif">Amazon S3</text>
        </g>
      </g>
    
      <g class="diagram-node"
         data-id="module.web_app.aws_s3_bucket.site"
         transform="translate(720, 304)"
         opacity="1"
         style="cursor: pointer;">
        <title>site — aws_s3_bucket (create)</title>
        <rect class="node-card" width="180" height="80" rx="10"
              fill="#111827"
              stroke="rgba(16, 185, 129, 0.5)"
              stroke-width="1.5"
              filter="url(#node-shadow)"/>
        <circle cx="166" cy="14" r="7" fill="#10b981" />
        <text x="166" y="17.5" text-anchor="middle" fill="#fff" font-size="10" font-weight="bold">+</text>
        
        <g transform="translate(12, 23)"><svg viewBox="0 0 80 80" version="1.1" xmlns="http://www.w3.org/2000/svg" xmlns:xlink="http://www.w3.org/1999/xlink" width="34" height="34"><defs><linearGradient x1="0%" y1="100%" x2="100%" y2="0%" id="tfarch-aws-s3-linearGradient-1"><stop stop-color="#1B660F" offset="0%"></stop><stop stop-color="#6CAE3E" offset="100%"></stop></linearGradient></defs><g id="tfarch-aws-s3-Icon-Architecture/64/Arch_Amazon-Simple-Storage-Service_64" stroke="none" stroke-width="1" fill="none" fill-rule="evenodd"><g id="tfarch-aws-s3-Rectangle" fill="url(#tfarch-aws-s3-linearGradient-1)"><rect x="0" y="0" width="80" height="80"></rect></g><g id="tfarch-aws-s3-Icon-Service/64/Amazon-Simple-Storage-Service_64" transform="translate(8.000000, 8.000000)" fill="#FFFFFF"><path d="M52.8359,34.8926 L53.2199,32.1886 C56.7609,34.3096 56.8069,35.1856 56.8059132,35.2096 C56.7999,35.2146 56.1959,35.7186 52.8359,34.8926 L52.8359,34.8926 Z M50.8929,34.3526 C44.7729,32.5006 36.2499,28.5906 32.8009,26.9606 C32.8009,26.9466 32.8049,26.9336 32.8049,26.9196 C32.8049,25.5946 31.7269,24.5166 30.4009,24.5166 C29.0769,24.5166 27.9989,25.5946 27.9989,26.9196 C27.9989,28.2446 29.0769,29.3226 30.4009,29.3226 C30.9829,29.3226 31.5109,29.1056 31.9279,28.7606 C35.9859,30.6816 44.4429,34.5346 50.6079,36.3546 L48.1699,53.5606 C48.1629,53.6076 48.1599,53.6546 48.1599,53.7016 C48.1599,55.2166 41.4529,57.9996 30.4939,57.9996 C19.4189,57.9996 12.6409,55.2166 12.6409,53.7016 C12.6409,53.6556 12.6379,53.6106 12.6319,53.5656 L7.5379,16.3586 C11.9469,19.3936 21.4299,20.9996 30.4999,20.9996 C39.5559,20.9996 49.0229,19.3996 53.4409,16.3736 L50.8929,34.3526 Z M6.9999,12.4776 C7.0719,11.1616 14.6339,5.9996 30.4999,5.9996 C46.3639,5.9996 53.9269,11.1606 53.9999,12.4776 L53.9999,12.9266 C53.1299,15.8776 43.3299,18.9996 30.4999,18.9996 C17.6479,18.9996 7.8429,15.8676 6.9999,12.9126 L6.9999,12.4776 Z M55.9999,12.4996 C55.9999,9.0346 46.0659,3.9996 30.4999,3.9996 C14.9339,3.9996 4.9999,9.0346 4.9999,12.4996 L5.0939,13.2536 L10.6419,53.7776 C10.7749,58.3096 22.8609,59.9996 30.4939,59.9996 C39.9659,59.9996 50.0289,57.8216 50.1589,53.7806 L52.5549,36.8836 C53.8879,37.2026 54.9849,37.3656 55.8659,37.3656 C57.0489,37.3656 57.8489,37.0766 58.3339,36.4986 C58.7319,36.0246 58.8839,35.4506 58.7699,34.8396 C58.5109,33.4556 56.8679,31.9636 53.5219,30.0546 L55.8979,13.2926 L55.9999,12.4996 Z" id="tfarch-aws-s3-Amazon-Simple-Storage-Service-Icon_64_Squid"></path></g></g></svg></g>
        <g transform="translate(56, 26)">
          <text fill="#f8fafc" font-size="12" font-weight="700" font-family="'Plus Jakarta Sans', 'Segoe UI', system-ui, sans-serif">site</text>
          <text y="16" fill="#94a3b8" font-size="9.5" font-family="'JetBrains Mono', ui-monospace, monospace">s3_bucket</text>
          <text y="30" fill="#7AA116" font-size="8.5" font-weight="600" font-family="'Plus Jakarta Sans', 'Segoe UI', system-ui, sans-serif">Amazon S3</text>
        </g>
      </g>
    
      <g class="diagram-node"
         data-id="module.web_app.aws_s3_bucket_lifecycle_configuration.logs"
         transform="translate(60, 408)"
         opacity="1"
         style="cursor: pointer;">
        <title>logs — aws_s3_bucket_lifecycle_configuration (create)</title>
        <rect class="node-card" width="180" height="80" rx="10"
              fill="#111827"
              stroke="rgba(16, 185, 129, 0.5)"
              stroke-width="1.5"
              filter="url(#node-shadow)"/>
        <circle cx="166" cy="14" r="7" fill="#10b981" />
        <text x="166" y="17.5" text-anchor="middle" fill="#fff" font-size="10" font-weight="bold">+</text>
        
        <g transform="translate(12, 23)"><svg viewBox="0 0 64 64" fill="none" xmlns="http://www.w3.org/2000/svg" width="34" height="34">
      <rect width="64" height="64" rx="8" fill="#334155"/>
      <path d="M32 16L46 24V40L32 48L18 40V24L32 16Z" stroke="#94A3B8" stroke-width="2.5" stroke-linejoin="round"/>
      <path d="M18 24L32 32L46 24M32 32V48" stroke="#94A3B8" stroke-width="2" stroke-opacity="0.7"/>
    </svg></g>
        <g transform="translate(56, 26)">
          <text fill="#f8fafc" font-size="12" font-weight="700" font-family="'Plus Jakarta Sans', 'Segoe UI', system-ui, sans-serif">logs</text>
          <text y="16" fill="#94a3b8" font-size="9.5" font-family="'JetBrains Mono', ui-monospace, monospace">s3_bucket_lifec…</text>
          <text y="30" fill="#232F3E" font-size="8.5" font-weight="600" font-family="'Plus Jakarta Sans', 'Segoe UI', system-ui, sans-serif">AWS Resource</text>
        </g>
      </g>
    
      <g class="diagram-node"
         data-id="module.web_app.aws_s3_bucket_lifecycle_configuration.site"
         transform="translate(280, 408)"
         opacity="1"
         style="cursor: pointer;">
        <title>site — aws_s3_bucket_lifecycle_configuration (create)</title>
        <rect class="node-card" width="180" height="80" rx="10"
              fill="#111827"
              stroke="rgba(16, 185, 129, 0.5)"
              stroke-width="1.5"
              filter="url(#node-shadow)"/>
        <circle cx="166" cy="14" r="7" fill="#10b981" />
        <text x="166" y="17.5" text-anchor="middle" fill="#fff" font-size="10" font-weight="bold">+</text>
        
        <g transform="translate(12, 23)"><svg viewBox="0 0 64 64" fill="none" xmlns="http://www.w3.org/2000/svg" width="34" height="34">
      <rect width="64" height="64" rx="8" fill="#334155"/>
      <path d="M32 16L46 24V40L32 48L18 40V24L32 16Z" stroke="#94A3B8" stroke-width="2.5" stroke-linejoin="round"/>
      <path d="M18 24L32 32L46 24M32 32V48" stroke="#94A3B8" stroke-width="2" stroke-opacity="0.7"/>
    </svg></g>
        <g transform="translate(56, 26)">
          <text fill="#f8fafc" font-size="12" font-weight="700" font-family="'Plus Jakarta Sans', 'Segoe UI', system-ui, sans-serif">site</text>
          <text y="16" fill="#94a3b8" font-size="9.5" font-family="'JetBrains Mono', ui-monospace, monospace">s3_bucket_lifec…</text>
          <text y="30" fill="#232F3E" font-size="8.5" font-weight="600" font-family="'Plus Jakarta Sans', 'Segoe UI', system-ui, sans-serif">AWS Resource</text>
        </g>
      </g>
    
      <g class="diagram-node"
         data-id="module.web_app.aws_s3_bucket_ownership_controls.logs"
         transform="translate(500, 408)"
         opacity="1"
         style="cursor: pointer;">
        <title>logs — aws_s3_bucket_ownership_controls (create)</title>
        <rect class="node-card" width="180" height="80" rx="10"
              fill="#111827"
              stroke="rgba(16, 185, 129, 0.5)"
              stroke-width="1.5"
              filter="url(#node-shadow)"/>
        <circle cx="166" cy="14" r="7" fill="#10b981" />
        <text x="166" y="17.5" text-anchor="middle" fill="#fff" font-size="10" font-weight="bold">+</text>
        
        <g transform="translate(12, 23)"><svg viewBox="0 0 64 64" fill="none" xmlns="http://www.w3.org/2000/svg" width="34" height="34">
      <rect width="64" height="64" rx="8" fill="#334155"/>
      <path d="M32 16L46 24V40L32 48L18 40V24L32 16Z" stroke="#94A3B8" stroke-width="2.5" stroke-linejoin="round"/>
      <path d="M18 24L32 32L46 24M32 32V48" stroke="#94A3B8" stroke-width="2" stroke-opacity="0.7"/>
    </svg></g>
        <g transform="translate(56, 26)">
          <text fill="#f8fafc" font-size="12" font-weight="700" font-family="'Plus Jakarta Sans', 'Segoe UI', system-ui, sans-serif">logs</text>
          <text y="16" fill="#94a3b8" font-size="9.5" font-family="'JetBrains Mono', ui-monospace, monospace">s3_bucket_owner…</text>
          <text y="30" fill="#232F3E" font-size="8.5" font-weight="600" font-family="'Plus Jakarta Sans', 'Segoe UI', system-ui, sans-serif">AWS Resource</text>
        </g>
      </g>
    
      <g class="diagram-node"
         data-id="module.web_app.aws_s3_bucket_ownership_controls.site"
         transform="translate(720, 408)"
         opacity="1"
         style="cursor: pointer;">
        <title>site — aws_s3_bucket_ownership_controls (create)</title>
        <rect class="node-card" width="180" height="80" rx="10"
              fill="#111827"
              stroke="rgba(16, 185, 129, 0.5)"
              stroke-width="1.5"
              filter="url(#node-shadow)"/>
        <circle cx="166" cy="14" r="7" fill="#10b981" />
        <text x="166" y="17.5" text-anchor="middle" fill="#fff" font-size="10" font-weight="bold">+</text>
        
        <g transform="translate(12, 23)"><svg viewBox="0 0 64 64" fill="none" xmlns="http://www.w3.org/2000/svg" width="34" height="34">
      <rect width="64" height="64" rx="8" fill="#334155"/>
      <path d="M32 16L46 24V40L32 48L18 40V24L32 16Z" stroke="#94A3B8" stroke-width="2.5" stroke-linejoin="round"/>
      <path d="M18 24L32 32L46 24M32 32V48" stroke="#94A3B8" stroke-width="2" stroke-opacity="0.7"/>
    </svg></g>
        <g transform="translate(56, 26)">
          <text fill="#f8fafc" font-size="12" font-weight="700" font-family="'Plus Jakarta Sans', 'Segoe UI', system-ui, sans-serif">site</text>
          <text y="16" fill="#94a3b8" font-size="9.5" font-family="'JetBrains Mono', ui-monospace, monospace">s3_bucket_owner…</text>
          <text y="30" fill="#232F3E" font-size="8.5" font-weight="600" font-family="'Plus Jakarta Sans', 'Segoe UI', system-ui, sans-serif">AWS Resource</text>
        </g>
      </g>
    
      <g class="diagram-node"
         data-id="module.web_app.aws_s3_bucket_policy.site"
         transform="translate(60, 512)"
         opacity="1"
         style="cursor: pointer;">
        <title>site — aws_s3_bucket_policy (create)</title>
        <rect class="node-card" width="180" height="80" rx="10"
              fill="#111827"
              stroke="rgba(16, 185, 129, 0.5)"
              stroke-width="1.5"
              filter="url(#node-shadow)"/>
        <circle cx="166" cy="14" r="7" fill="#10b981" />
        <text x="166" y="17.5" text-anchor="middle" fill="#fff" font-size="10" font-weight="bold">+</text>
        
        <g transform="translate(12, 23)"><svg viewBox="0 0 80 80" version="1.1" xmlns="http://www.w3.org/2000/svg" xmlns:xlink="http://www.w3.org/1999/xlink" width="34" height="34"><defs><linearGradient x1="0%" y1="100%" x2="100%" y2="0%" id="tfarch-aws-s3-linearGradient-1"><stop stop-color="#1B660F" offset="0%"></stop><stop stop-color="#6CAE3E" offset="100%"></stop></linearGradient></defs><g id="tfarch-aws-s3-Icon-Architecture/64/Arch_Amazon-Simple-Storage-Service_64" stroke="none" stroke-width="1" fill="none" fill-rule="evenodd"><g id="tfarch-aws-s3-Rectangle" fill="url(#tfarch-aws-s3-linearGradient-1)"><rect x="0" y="0" width="80" height="80"></rect></g><g id="tfarch-aws-s3-Icon-Service/64/Amazon-Simple-Storage-Service_64" transform="translate(8.000000, 8.000000)" fill="#FFFFFF"><path d="M52.8359,34.8926 L53.2199,32.1886 C56.7609,34.3096 56.8069,35.1856 56.8059132,35.2096 C56.7999,35.2146 56.1959,35.7186 52.8359,34.8926 L52.8359,34.8926 Z M50.8929,34.3526 C44.7729,32.5006 36.2499,28.5906 32.8009,26.9606 C32.8009,26.9466 32.8049,26.9336 32.8049,26.9196 C32.8049,25.5946 31.7269,24.5166 30.4009,24.5166 C29.0769,24.5166 27.9989,25.5946 27.9989,26.9196 C27.9989,28.2446 29.0769,29.3226 30.4009,29.3226 C30.9829,29.3226 31.5109,29.1056 31.9279,28.7606 C35.9859,30.6816 44.4429,34.5346 50.6079,36.3546 L48.1699,53.5606 C48.1629,53.6076 48.1599,53.6546 48.1599,53.7016 C48.1599,55.2166 41.4529,57.9996 30.4939,57.9996 C19.4189,57.9996 12.6409,55.2166 12.6409,53.7016 C12.6409,53.6556 12.6379,53.6106 12.6319,53.5656 L7.5379,16.3586 C11.9469,19.3936 21.4299,20.9996 30.4999,20.9996 C39.5559,20.9996 49.0229,19.3996 53.4409,16.3736 L50.8929,34.3526 Z M6.9999,12.4776 C7.0719,11.1616 14.6339,5.9996 30.4999,5.9996 C46.3639,5.9996 53.9269,11.1606 53.9999,12.4776 L53.9999,12.9266 C53.1299,15.8776 43.3299,18.9996 30.4999,18.9996 C17.6479,18.9996 7.8429,15.8676 6.9999,12.9126 L6.9999,12.4776 Z M55.9999,12.4996 C55.9999,9.0346 46.0659,3.9996 30.4999,3.9996 C14.9339,3.9996 4.9999,9.0346 4.9999,12.4996 L5.0939,13.2536 L10.6419,53.7776 C10.7749,58.3096 22.8609,59.9996 30.4939,59.9996 C39.9659,59.9996 50.0289,57.8216 50.1589,53.7806 L52.5549,36.8836 C53.8879,37.2026 54.9849,37.3656 55.8659,37.3656 C57.0489,37.3656 57.8489,37.0766 58.3339,36.4986 C58.7319,36.0246 58.8839,35.4506 58.7699,34.8396 C58.5109,33.4556 56.8679,31.9636 53.5219,30.0546 L55.8979,13.2926 L55.9999,12.4996 Z" id="tfarch-aws-s3-Amazon-Simple-Storage-Service-Icon_64_Squid"></path></g></g></svg></g>
        <g transform="translate(56, 26)">
          <text fill="#f8fafc" font-size="12" font-weight="700" font-family="'Plus Jakarta Sans', 'Segoe UI', system-ui, sans-serif">site</text>
          <text y="16" fill="#94a3b8" font-size="9.5" font-family="'JetBrains Mono', ui-monospace, monospace">s3_bucket_policy</text>
          <text y="30" fill="#7AA116" font-size="8.5" font-weight="600" font-family="'Plus Jakarta Sans', 'Segoe UI', system-ui, sans-serif">Amazon S3</text>
        </g>
      </g>
    
      <g class="diagram-node"
         data-id="module.web_app.aws_s3_bucket_public_access_block.logs"
         transform="translate(280, 512)"
         opacity="1"
         style="cursor: pointer;">
        <title>logs — aws_s3_bucket_public_access_block (create)</title>
        <rect class="node-card" width="180" height="80" rx="10"
              fill="#111827"
              stroke="rgba(16, 185, 129, 0.5)"
              stroke-width="1.5"
              filter="url(#node-shadow)"/>
        <circle cx="166" cy="14" r="7" fill="#10b981" />
        <text x="166" y="17.5" text-anchor="middle" fill="#fff" font-size="10" font-weight="bold">+</text>
        
        <g transform="translate(12, 23)"><svg viewBox="0 0 80 80" version="1.1" xmlns="http://www.w3.org/2000/svg" xmlns:xlink="http://www.w3.org/1999/xlink" width="34" height="34"><defs><linearGradient x1="0%" y1="100%" x2="100%" y2="0%" id="tfarch-aws-s3-linearGradient-1"><stop stop-color="#1B660F" offset="0%"></stop><stop stop-color="#6CAE3E" offset="100%"></stop></linearGradient></defs><g id="tfarch-aws-s3-Icon-Architecture/64/Arch_Amazon-Simple-Storage-Service_64" stroke="none" stroke-width="1" fill="none" fill-rule="evenodd"><g id="tfarch-aws-s3-Rectangle" fill="url(#tfarch-aws-s3-linearGradient-1)"><rect x="0" y="0" width="80" height="80"></rect></g><g id="tfarch-aws-s3-Icon-Service/64/Amazon-Simple-Storage-Service_64" transform="translate(8.000000, 8.000000)" fill="#FFFFFF"><path d="M52.8359,34.8926 L53.2199,32.1886 C56.7609,34.3096 56.8069,35.1856 56.8059132,35.2096 C56.7999,35.2146 56.1959,35.7186 52.8359,34.8926 L52.8359,34.8926 Z M50.8929,34.3526 C44.7729,32.5006 36.2499,28.5906 32.8009,26.9606 C32.8009,26.9466 32.8049,26.9336 32.8049,26.9196 C32.8049,25.5946 31.7269,24.5166 30.4009,24.5166 C29.0769,24.5166 27.9989,25.5946 27.9989,26.9196 C27.9989,28.2446 29.0769,29.3226 30.4009,29.3226 C30.9829,29.3226 31.5109,29.1056 31.9279,28.7606 C35.9859,30.6816 44.4429,34.5346 50.6079,36.3546 L48.1699,53.5606 C48.1629,53.6076 48.1599,53.6546 48.1599,53.7016 C48.1599,55.2166 41.4529,57.9996 30.4939,57.9996 C19.4189,57.9996 12.6409,55.2166 12.6409,53.7016 C12.6409,53.6556 12.6379,53.6106 12.6319,53.5656 L7.5379,16.3586 C11.9469,19.3936 21.4299,20.9996 30.4999,20.9996 C39.5559,20.9996 49.0229,19.3996 53.4409,16.3736 L50.8929,34.3526 Z M6.9999,12.4776 C7.0719,11.1616 14.6339,5.9996 30.4999,5.9996 C46.3639,5.9996 53.9269,11.1606 53.9999,12.4776 L53.9999,12.9266 C53.1299,15.8776 43.3299,18.9996 30.4999,18.9996 C17.6479,18.9996 7.8429,15.8676 6.9999,12.9126 L6.9999,12.4776 Z M55.9999,12.4996 C55.9999,9.0346 46.0659,3.9996 30.4999,3.9996 C14.9339,3.9996 4.9999,9.0346 4.9999,12.4996 L5.0939,13.2536 L10.6419,53.7776 C10.7749,58.3096 22.8609,59.9996 30.4939,59.9996 C39.9659,59.9996 50.0289,57.8216 50.1589,53.7806 L52.5549,36.8836 C53.8879,37.2026 54.9849,37.3656 55.8659,37.3656 C57.0489,37.3656 57.8489,37.0766 58.3339,36.4986 C58.7319,36.0246 58.8839,35.4506 58.7699,34.8396 C58.5109,33.4556 56.8679,31.9636 53.5219,30.0546 L55.8979,13.2926 L55.9999,12.4996 Z" id="tfarch-aws-s3-Amazon-Simple-Storage-Service-Icon_64_Squid"></path></g></g></svg></g>
        <g transform="translate(56, 26)">
          <text fill="#f8fafc" font-size="12" font-weight="700" font-family="'Plus Jakarta Sans', 'Segoe UI', system-ui, sans-serif">logs</text>
          <text y="16" fill="#94a3b8" font-size="9.5" font-family="'JetBrains Mono', ui-monospace, monospace">s3_bucket_publi…</text>
          <text y="30" fill="#7AA116" font-size="8.5" font-weight="600" font-family="'Plus Jakarta Sans', 'Segoe UI', system-ui, sans-serif">Amazon S3</text>
        </g>
      </g>
    
      <g class="diagram-node"
         data-id="module.web_app.aws_s3_bucket_public_access_block.site"
         transform="translate(500, 512)"
         opacity="1"
         style="cursor: pointer;">
        <title>site — aws_s3_bucket_public_access_block (create)</title>
        <rect class="node-card" width="180" height="80" rx="10"
              fill="#111827"
              stroke="rgba(16, 185, 129, 0.5)"
              stroke-width="1.5"
              filter="url(#node-shadow)"/>
        <circle cx="166" cy="14" r="7" fill="#10b981" />
        <text x="166" y="17.5" text-anchor="middle" fill="#fff" font-size="10" font-weight="bold">+</text>
        
        <g transform="translate(12, 23)"><svg viewBox="0 0 80 80" version="1.1" xmlns="http://www.w3.org/2000/svg" xmlns:xlink="http://www.w3.org/1999/xlink" width="34" height="34"><defs><linearGradient x1="0%" y1="100%" x2="100%" y2="0%" id="tfarch-aws-s3-linearGradient-1"><stop stop-color="#1B660F" offset="0%"></stop><stop stop-color="#6CAE3E" offset="100%"></stop></linearGradient></defs><g id="tfarch-aws-s3-Icon-Architecture/64/Arch_Amazon-Simple-Storage-Service_64" stroke="none" stroke-width="1" fill="none" fill-rule="evenodd"><g id="tfarch-aws-s3-Rectangle" fill="url(#tfarch-aws-s3-linearGradient-1)"><rect x="0" y="0" width="80" height="80"></rect></g><g id="tfarch-aws-s3-Icon-Service/64/Amazon-Simple-Storage-Service_64" transform="translate(8.000000, 8.000000)" fill="#FFFFFF"><path d="M52.8359,34.8926 L53.2199,32.1886 C56.7609,34.3096 56.8069,35.1856 56.8059132,35.2096 C56.7999,35.2146 56.1959,35.7186 52.8359,34.8926 L52.8359,34.8926 Z M50.8929,34.3526 C44.7729,32.5006 36.2499,28.5906 32.8009,26.9606 C32.8009,26.9466 32.8049,26.9336 32.8049,26.9196 C32.8049,25.5946 31.7269,24.5166 30.4009,24.5166 C29.0769,24.5166 27.9989,25.5946 27.9989,26.9196 C27.9989,28.2446 29.0769,29.3226 30.4009,29.3226 C30.9829,29.3226 31.5109,29.1056 31.9279,28.7606 C35.9859,30.6816 44.4429,34.5346 50.6079,36.3546 L48.1699,53.5606 C48.1629,53.6076 48.1599,53.6546 48.1599,53.7016 C48.1599,55.2166 41.4529,57.9996 30.4939,57.9996 C19.4189,57.9996 12.6409,55.2166 12.6409,53.7016 C12.6409,53.6556 12.6379,53.6106 12.6319,53.5656 L7.5379,16.3586 C11.9469,19.3936 21.4299,20.9996 30.4999,20.9996 C39.5559,20.9996 49.0229,19.3996 53.4409,16.3736 L50.8929,34.3526 Z M6.9999,12.4776 C7.0719,11.1616 14.6339,5.9996 30.4999,5.9996 C46.3639,5.9996 53.9269,11.1606 53.9999,12.4776 L53.9999,12.9266 C53.1299,15.8776 43.3299,18.9996 30.4999,18.9996 C17.6479,18.9996 7.8429,15.8676 6.9999,12.9126 L6.9999,12.4776 Z M55.9999,12.4996 C55.9999,9.0346 46.0659,3.9996 30.4999,3.9996 C14.9339,3.9996 4.9999,9.0346 4.9999,12.4996 L5.0939,13.2536 L10.6419,53.7776 C10.7749,58.3096 22.8609,59.9996 30.4939,59.9996 C39.9659,59.9996 50.0289,57.8216 50.1589,53.7806 L52.5549,36.8836 C53.8879,37.2026 54.9849,37.3656 55.8659,37.3656 C57.0489,37.3656 57.8489,37.0766 58.3339,36.4986 C58.7319,36.0246 58.8839,35.4506 58.7699,34.8396 C58.5109,33.4556 56.8679,31.9636 53.5219,30.0546 L55.8979,13.2926 L55.9999,12.4996 Z" id="tfarch-aws-s3-Amazon-Simple-Storage-Service-Icon_64_Squid"></path></g></g></svg></g>
        <g transform="translate(56, 26)">
          <text fill="#f8fafc" font-size="12" font-weight="700" font-family="'Plus Jakarta Sans', 'Segoe UI', system-ui, sans-serif">site</text>
          <text y="16" fill="#94a3b8" font-size="9.5" font-family="'JetBrains Mono', ui-monospace, monospace">s3_bucket_publi…</text>
          <text y="30" fill="#7AA116" font-size="8.5" font-weight="600" font-family="'Plus Jakarta Sans', 'Segoe UI', system-ui, sans-serif">Amazon S3</text>
        </g>
      </g>
    
      <g class="diagram-node"
         data-id="module.web_app.aws_s3_bucket_server_side_encryption_configuration.logs"
         transform="translate(720, 512)"
         opacity="1"
         style="cursor: pointer;">
        <title>logs — aws_s3_bucket_server_side_encryption_configuration (create)</title>
        <rect class="node-card" width="180" height="80" rx="10"
              fill="#111827"
              stroke="rgba(16, 185, 129, 0.5)"
              stroke-width="1.5"
              filter="url(#node-shadow)"/>
        <circle cx="166" cy="14" r="7" fill="#10b981" />
        <text x="166" y="17.5" text-anchor="middle" fill="#fff" font-size="10" font-weight="bold">+</text>
        
        <g transform="translate(12, 23)"><svg viewBox="0 0 80 80" version="1.1" xmlns="http://www.w3.org/2000/svg" xmlns:xlink="http://www.w3.org/1999/xlink" width="34" height="34"><defs><linearGradient x1="0%" y1="100%" x2="100%" y2="0%" id="tfarch-aws-s3-linearGradient-1"><stop stop-color="#1B660F" offset="0%"></stop><stop stop-color="#6CAE3E" offset="100%"></stop></linearGradient></defs><g id="tfarch-aws-s3-Icon-Architecture/64/Arch_Amazon-Simple-Storage-Service_64" stroke="none" stroke-width="1" fill="none" fill-rule="evenodd"><g id="tfarch-aws-s3-Rectangle" fill="url(#tfarch-aws-s3-linearGradient-1)"><rect x="0" y="0" width="80" height="80"></rect></g><g id="tfarch-aws-s3-Icon-Service/64/Amazon-Simple-Storage-Service_64" transform="translate(8.000000, 8.000000)" fill="#FFFFFF"><path d="M52.8359,34.8926 L53.2199,32.1886 C56.7609,34.3096 56.8069,35.1856 56.8059132,35.2096 C56.7999,35.2146 56.1959,35.7186 52.8359,34.8926 L52.8359,34.8926 Z M50.8929,34.3526 C44.7729,32.5006 36.2499,28.5906 32.8009,26.9606 C32.8009,26.9466 32.8049,26.9336 32.8049,26.9196 C32.8049,25.5946 31.7269,24.5166 30.4009,24.5166 C29.0769,24.5166 27.9989,25.5946 27.9989,26.9196 C27.9989,28.2446 29.0769,29.3226 30.4009,29.3226 C30.9829,29.3226 31.5109,29.1056 31.9279,28.7606 C35.9859,30.6816 44.4429,34.5346 50.6079,36.3546 L48.1699,53.5606 C48.1629,53.6076 48.1599,53.6546 48.1599,53.7016 C48.1599,55.2166 41.4529,57.9996 30.4939,57.9996 C19.4189,57.9996 12.6409,55.2166 12.6409,53.7016 C12.6409,53.6556 12.6379,53.6106 12.6319,53.5656 L7.5379,16.3586 C11.9469,19.3936 21.4299,20.9996 30.4999,20.9996 C39.5559,20.9996 49.0229,19.3996 53.4409,16.3736 L50.8929,34.3526 Z M6.9999,12.4776 C7.0719,11.1616 14.6339,5.9996 30.4999,5.9996 C46.3639,5.9996 53.9269,11.1606 53.9999,12.4776 L53.9999,12.9266 C53.1299,15.8776 43.3299,18.9996 30.4999,18.9996 C17.6479,18.9996 7.8429,15.8676 6.9999,12.9126 L6.9999,12.4776 Z M55.9999,12.4996 C55.9999,9.0346 46.0659,3.9996 30.4999,3.9996 C14.9339,3.9996 4.9999,9.0346 4.9999,12.4996 L5.0939,13.2536 L10.6419,53.7776 C10.7749,58.3096 22.8609,59.9996 30.4939,59.9996 C39.9659,59.9996 50.0289,57.8216 50.1589,53.7806 L52.5549,36.8836 C53.8879,37.2026 54.9849,37.3656 55.8659,37.3656 C57.0489,37.3656 57.8489,37.0766 58.3339,36.4986 C58.7319,36.0246 58.8839,35.4506 58.7699,34.8396 C58.5109,33.4556 56.8679,31.9636 53.5219,30.0546 L55.8979,13.2926 L55.9999,12.4996 Z" id="tfarch-aws-s3-Amazon-Simple-Storage-Service-Icon_64_Squid"></path></g></g></svg></g>
        <g transform="translate(56, 26)">
          <text fill="#f8fafc" font-size="12" font-weight="700" font-family="'Plus Jakarta Sans', 'Segoe UI', system-ui, sans-serif">logs</text>
          <text y="16" fill="#94a3b8" font-size="9.5" font-family="'JetBrains Mono', ui-monospace, monospace">s3_bucket_serve…</text>
          <text y="30" fill="#7AA116" font-size="8.5" font-weight="600" font-family="'Plus Jakarta Sans', 'Segoe UI', system-ui, sans-serif">Amazon S3</text>
        </g>
      </g>
    
      <g class="diagram-node"
         data-id="module.web_app.aws_s3_bucket_server_side_encryption_configuration.site"
         transform="translate(60, 616)"
         opacity="1"
         style="cursor: pointer;">
        <title>site — aws_s3_bucket_server_side_encryption_configuration (create)</title>
        <rect class="node-card" width="180" height="80" rx="10"
              fill="#111827"
              stroke="rgba(16, 185, 129, 0.5)"
              stroke-width="1.5"
              filter="url(#node-shadow)"/>
        <circle cx="166" cy="14" r="7" fill="#10b981" />
        <text x="166" y="17.5" text-anchor="middle" fill="#fff" font-size="10" font-weight="bold">+</text>
        
        <g transform="translate(12, 23)"><svg viewBox="0 0 80 80" version="1.1" xmlns="http://www.w3.org/2000/svg" xmlns:xlink="http://www.w3.org/1999/xlink" width="34" height="34"><defs><linearGradient x1="0%" y1="100%" x2="100%" y2="0%" id="tfarch-aws-s3-linearGradient-1"><stop stop-color="#1B660F" offset="0%"></stop><stop stop-color="#6CAE3E" offset="100%"></stop></linearGradient></defs><g id="tfarch-aws-s3-Icon-Architecture/64/Arch_Amazon-Simple-Storage-Service_64" stroke="none" stroke-width="1" fill="none" fill-rule="evenodd"><g id="tfarch-aws-s3-Rectangle" fill="url(#tfarch-aws-s3-linearGradient-1)"><rect x="0" y="0" width="80" height="80"></rect></g><g id="tfarch-aws-s3-Icon-Service/64/Amazon-Simple-Storage-Service_64" transform="translate(8.000000, 8.000000)" fill="#FFFFFF"><path d="M52.8359,34.8926 L53.2199,32.1886 C56.7609,34.3096 56.8069,35.1856 56.8059132,35.2096 C56.7999,35.2146 56.1959,35.7186 52.8359,34.8926 L52.8359,34.8926 Z M50.8929,34.3526 C44.7729,32.5006 36.2499,28.5906 32.8009,26.9606 C32.8009,26.9466 32.8049,26.9336 32.8049,26.9196 C32.8049,25.5946 31.7269,24.5166 30.4009,24.5166 C29.0769,24.5166 27.9989,25.5946 27.9989,26.9196 C27.9989,28.2446 29.0769,29.3226 30.4009,29.3226 C30.9829,29.3226 31.5109,29.1056 31.9279,28.7606 C35.9859,30.6816 44.4429,34.5346 50.6079,36.3546 L48.1699,53.5606 C48.1629,53.6076 48.1599,53.6546 48.1599,53.7016 C48.1599,55.2166 41.4529,57.9996 30.4939,57.9996 C19.4189,57.9996 12.6409,55.2166 12.6409,53.7016 C12.6409,53.6556 12.6379,53.6106 12.6319,53.5656 L7.5379,16.3586 C11.9469,19.3936 21.4299,20.9996 30.4999,20.9996 C39.5559,20.9996 49.0229,19.3996 53.4409,16.3736 L50.8929,34.3526 Z M6.9999,12.4776 C7.0719,11.1616 14.6339,5.9996 30.4999,5.9996 C46.3639,5.9996 53.9269,11.1606 53.9999,12.4776 L53.9999,12.9266 C53.1299,15.8776 43.3299,18.9996 30.4999,18.9996 C17.6479,18.9996 7.8429,15.8676 6.9999,12.9126 L6.9999,12.4776 Z M55.9999,12.4996 C55.9999,9.0346 46.0659,3.9996 30.4999,3.9996 C14.9339,3.9996 4.9999,9.0346 4.9999,12.4996 L5.0939,13.2536 L10.6419,53.7776 C10.7749,58.3096 22.8609,59.9996 30.4939,59.9996 C39.9659,59.9996 50.0289,57.8216 50.1589,53.7806 L52.5549,36.8836 C53.8879,37.2026 54.9849,37.3656 55.8659,37.3656 C57.0489,37.3656 57.8489,37.0766 58.3339,36.4986 C58.7319,36.0246 58.8839,35.4506 58.7699,34.8396 C58.5109,33.4556 56.8679,31.9636 53.5219,30.0546 L55.8979,13.2926 L55.9999,12.4996 Z" id="tfarch-aws-s3-Amazon-Simple-Storage-Service-Icon_64_Squid"></path></g></g></svg></g>
        <g transform="translate(56, 26)">
          <text fill="#f8fafc" font-size="12" font-weight="700" font-family="'Plus Jakarta Sans', 'Segoe UI', system-ui, sans-serif">site</text>
          <text y="16" fill="#94a3b8" font-size="9.5" font-family="'JetBrains Mono', ui-monospace, monospace">s3_bucket_serve…</text>
          <text y="30" fill="#7AA116" font-size="8.5" font-weight="600" font-family="'Plus Jakarta Sans', 'Segoe UI', system-ui, sans-serif">Amazon S3</text>
        </g>
      </g>
    
      <g class="diagram-node"
         data-id="module.web_app.aws_s3_bucket_versioning.site"
         transform="translate(280, 616)"
         opacity="1"
         style="cursor: pointer;">
        <title>site — aws_s3_bucket_versioning (create)</title>
        <rect class="node-card" width="180" height="80" rx="10"
              fill="#111827"
              stroke="rgba(16, 185, 129, 0.5)"
              stroke-width="1.5"
              filter="url(#node-shadow)"/>
        <circle cx="166" cy="14" r="7" fill="#10b981" />
        <text x="166" y="17.5" text-anchor="middle" fill="#fff" font-size="10" font-weight="bold">+</text>
        
        <g transform="translate(12, 23)"><svg viewBox="0 0 80 80" version="1.1" xmlns="http://www.w3.org/2000/svg" xmlns:xlink="http://www.w3.org/1999/xlink" width="34" height="34"><defs><linearGradient x1="0%" y1="100%" x2="100%" y2="0%" id="tfarch-aws-s3-linearGradient-1"><stop stop-color="#1B660F" offset="0%"></stop><stop stop-color="#6CAE3E" offset="100%"></stop></linearGradient></defs><g id="tfarch-aws-s3-Icon-Architecture/64/Arch_Amazon-Simple-Storage-Service_64" stroke="none" stroke-width="1" fill="none" fill-rule="evenodd"><g id="tfarch-aws-s3-Rectangle" fill="url(#tfarch-aws-s3-linearGradient-1)"><rect x="0" y="0" width="80" height="80"></rect></g><g id="tfarch-aws-s3-Icon-Service/64/Amazon-Simple-Storage-Service_64" transform="translate(8.000000, 8.000000)" fill="#FFFFFF"><path d="M52.8359,34.8926 L53.2199,32.1886 C56.7609,34.3096 56.8069,35.1856 56.8059132,35.2096 C56.7999,35.2146 56.1959,35.7186 52.8359,34.8926 L52.8359,34.8926 Z M50.8929,34.3526 C44.7729,32.5006 36.2499,28.5906 32.8009,26.9606 C32.8009,26.9466 32.8049,26.9336 32.8049,26.9196 C32.8049,25.5946 31.7269,24.5166 30.4009,24.5166 C29.0769,24.5166 27.9989,25.5946 27.9989,26.9196 C27.9989,28.2446 29.0769,29.3226 30.4009,29.3226 C30.9829,29.3226 31.5109,29.1056 31.9279,28.7606 C35.9859,30.6816 44.4429,34.5346 50.6079,36.3546 L48.1699,53.5606 C48.1629,53.6076 48.1599,53.6546 48.1599,53.7016 C48.1599,55.2166 41.4529,57.9996 30.4939,57.9996 C19.4189,57.9996 12.6409,55.2166 12.6409,53.7016 C12.6409,53.6556 12.6379,53.6106 12.6319,53.5656 L7.5379,16.3586 C11.9469,19.3936 21.4299,20.9996 30.4999,20.9996 C39.5559,20.9996 49.0229,19.3996 53.4409,16.3736 L50.8929,34.3526 Z M6.9999,12.4776 C7.0719,11.1616 14.6339,5.9996 30.4999,5.9996 C46.3639,5.9996 53.9269,11.1606 53.9999,12.4776 L53.9999,12.9266 C53.1299,15.8776 43.3299,18.9996 30.4999,18.9996 C17.6479,18.9996 7.8429,15.8676 6.9999,12.9126 L6.9999,12.4776 Z M55.9999,12.4996 C55.9999,9.0346 46.0659,3.9996 30.4999,3.9996 C14.9339,3.9996 4.9999,9.0346 4.9999,12.4996 L5.0939,13.2536 L10.6419,53.7776 C10.7749,58.3096 22.8609,59.9996 30.4939,59.9996 C39.9659,59.9996 50.0289,57.8216 50.1589,53.7806 L52.5549,36.8836 C53.8879,37.2026 54.9849,37.3656 55.8659,37.3656 C57.0489,37.3656 57.8489,37.0766 58.3339,36.4986 C58.7319,36.0246 58.8839,35.4506 58.7699,34.8396 C58.5109,33.4556 56.8679,31.9636 53.5219,30.0546 L55.8979,13.2926 L55.9999,12.4996 Z" id="tfarch-aws-s3-Amazon-Simple-Storage-Service-Icon_64_Squid"></path></g></g></svg></g>
        <g transform="translate(56, 26)">
          <text fill="#f8fafc" font-size="12" font-weight="700" font-family="'Plus Jakarta Sans', 'Segoe UI', system-ui, sans-serif">site</text>
          <text y="16" fill="#94a3b8" font-size="9.5" font-family="'JetBrains Mono', ui-monospace, monospace">s3_bucket_versi…</text>
          <text y="30" fill="#7AA116" font-size="8.5" font-weight="600" font-family="'Plus Jakarta Sans', 'Segoe UI', system-ui, sans-serif">Amazon S3</text>
        </g>
      </g>
    
      <g class="diagram-node"
         data-id="module.web_app.aws_secretsmanager_secret.deploy"
         transform="translate(500, 616)"
         opacity="1"
         style="cursor: pointer;">
        <title>deploy — aws_secretsmanager_secret (create)</title>
        <rect class="node-card" width="180" height="80" rx="10"
              fill="#111827"
              stroke="rgba(16, 185, 129, 0.5)"
              stroke-width="1.5"
              filter="url(#node-shadow)"/>
        <circle cx="166" cy="14" r="7" fill="#10b981" />
        <text x="166" y="17.5" text-anchor="middle" fill="#fff" font-size="10" font-weight="bold">+</text>
        
        <g transform="translate(12, 23)"><svg viewBox="0 0 80 80" version="1.1" xmlns="http://www.w3.org/2000/svg" xmlns:xlink="http://www.w3.org/1999/xlink" width="34" height="34"><defs><linearGradient x1="0%" y1="100%" x2="100%" y2="0%" id="tfarch-aws-secretsmanager-linearGradient-1"><stop stop-color="#BD0816" offset="0%"></stop><stop stop-color="#FF5252" offset="100%"></stop></linearGradient></defs><g id="tfarch-aws-secretsmanager-Icon-Architecture/64/Arch_AWS-Secrets-Manager_64" stroke="none" stroke-width="1" fill="none" fill-rule="evenodd"><g id="tfarch-aws-secretsmanager-Icon-Architecture-BG/64/Security-Identity-Compliance" fill="url(#tfarch-aws-secretsmanager-linearGradient-1)"><rect id="tfarch-aws-secretsmanager-Rectangle" x="0" y="0" width="80" height="80"></rect></g><path d="M38.76,43.36 C38.76,44.044 39.317,44.6 40,44.6 C40.684,44.6 41.24,44.044 41.24,43.36 C41.24,42.676 40.684,42.12 40,42.12 C39.317,42.12 38.76,42.676 38.76,43.36 L38.76,43.36 Z M36.76,43.36 C36.76,41.573 38.213,40.12 40,40.12 C41.787,40.12 43.24,41.573 43.24,43.36 C43.24,44.796 42.296,46.002 41,46.426 L41,49 L39,49 L39,46.426 C37.704,46.002 36.76,44.796 36.76,43.36 L36.76,43.36 Z M49,38 L31,38 L31,51 L49,51 L49,48 L46,48 L46,46 L49,46 L49,43 L46,43 L46,41 L49,41 L49,38 Z M34,36 L45.999,36 L46,31 C46.001,28.384 43.143,26.002 40.004,26 L40.001,26 C38.472,26 36.928,26.574 35.763,27.575 C34.643,28.537 34,29.786 34,31.001 L34,36 Z M48,31.001 L47.999,36 L50,36 C50.553,36 51,36.448 51,37 L51,52 C51,52.552 50.553,53 50,53 L30,53 C29.447,53 29,52.552 29,52 L29,37 C29,36.448 29.447,36 30,36 L32,36 L32,31 C32.001,29.202 32.897,27.401 34.459,26.058 C35.982,24.75 38.001,24 40.001,24 L40.004,24 C44.265,24.002 48.001,27.273 48,31.001 L48,31.001 Z M19.207,55.049 L20.828,53.877 C18.093,50.097 16.581,45.662 16.396,41 L19,41 L19,39 L16.399,39 C16.598,34.366 18.108,29.957 20.828,26.198 L19.207,25.025 C16.239,29.128 14.599,33.942 14.399,39 L12,39 L12,41 L14.396,41 C14.582,46.086 16.224,50.926 19.207,55.049 L19.207,55.049 Z M53.838,59.208 C50.069,61.936 45.648,63.446 41,63.639 L41,61 L39,61 L39,63.639 C34.352,63.447 29.93,61.937 26.159,59.208 L24.988,60.828 C29.1,63.805 33.928,65.445 39,65.639 L39,68 L41,68 L41,65.639 C46.072,65.445 50.898,63.805 55.01,60.828 L53.838,59.208 Z M26.159,20.866 C29.93,18.138 34.352,16.628 39,16.436 L39,19 L41,19 L41,16.436 C45.648,16.628 50.069,18.138 53.838,20.866 L55.01,19.246 C50.898,16.27 46.072,14.63 41,14.436 L41,12 L39,12 L39,14.436 C33.928,14.629 29.1,16.269 24.988,19.246 L26.159,20.866 Z M65.599,39 C65.399,33.942 63.759,29.128 60.79,25.025 L59.169,26.198 C61.89,29.957 63.4,34.366 63.599,39 L61,39 L61,41 L63.602,41 C63.416,45.662 61.905,50.097 59.169,53.877 L60.79,55.049 C63.774,50.926 65.415,46.086 65.602,41 L68,41 L68,39 L65.599,39 Z M56.386,25.064 L64.226,17.224 L62.812,15.81 L54.972,23.65 L56.386,25.064 Z M23.612,55.01 L15.772,62.85 L17.186,64.264 L25.026,56.424 L23.612,55.01 Z M28.666,27.253 L13.825,12.413 L12.411,13.827 L27.252,28.667 L28.666,27.253 Z M54.193,52.78 L67.586,66.173 L66.172,67.587 L52.779,54.194 L54.193,52.78 Z" id="tfarch-aws-secretsmanager-AWS-Secrets-Manager_Icon_64_Squid" fill="#FFFFFF"></path></g></svg></g>
        <g transform="translate(56, 26)">
          <text fill="#f8fafc" font-size="12" font-weight="700" font-family="'Plus Jakarta Sans', 'Segoe UI', system-ui, sans-serif">deploy</text>
          <text y="16" fill="#94a3b8" font-size="9.5" font-family="'JetBrains Mono', ui-monospace, monospace">secretsmanager_…</text>
          <text y="30" fill="#DD344C" font-size="8.5" font-weight="600" font-family="'Plus Jakarta Sans', 'Segoe UI', system-ui, sans-serif">AWS Secrets Manag…</text>
        </g>
      </g>
    
      <g class="diagram-node"
         data-id="module.web_app.aws_secretsmanager_secret_version.deploy"
         transform="translate(720, 616)"
         opacity="1"
         style="cursor: pointer;">
        <title>deploy — aws_secretsmanager_secret_version (create)</title>
        <rect class="node-card" width="180" height="80" rx="10"
              fill="#111827"
              stroke="rgba(16, 185, 129, 0.5)"
              stroke-width="1.5"
              filter="url(#node-shadow)"/>
        <circle cx="166" cy="14" r="7" fill="#10b981" />
        <text x="166" y="17.5" text-anchor="middle" fill="#fff" font-size="10" font-weight="bold">+</text>
        
        <g transform="translate(12, 23)"><svg viewBox="0 0 80 80" version="1.1" xmlns="http://www.w3.org/2000/svg" xmlns:xlink="http://www.w3.org/1999/xlink" width="34" height="34"><defs><linearGradient x1="0%" y1="100%" x2="100%" y2="0%" id="tfarch-aws-secretsmanager-linearGradient-1"><stop stop-color="#BD0816" offset="0%"></stop><stop stop-color="#FF5252" offset="100%"></stop></linearGradient></defs><g id="tfarch-aws-secretsmanager-Icon-Architecture/64/Arch_AWS-Secrets-Manager_64" stroke="none" stroke-width="1" fill="none" fill-rule="evenodd"><g id="tfarch-aws-secretsmanager-Icon-Architecture-BG/64/Security-Identity-Compliance" fill="url(#tfarch-aws-secretsmanager-linearGradient-1)"><rect id="tfarch-aws-secretsmanager-Rectangle" x="0" y="0" width="80" height="80"></rect></g><path d="M38.76,43.36 C38.76,44.044 39.317,44.6 40,44.6 C40.684,44.6 41.24,44.044 41.24,43.36 C41.24,42.676 40.684,42.12 40,42.12 C39.317,42.12 38.76,42.676 38.76,43.36 L38.76,43.36 Z M36.76,43.36 C36.76,41.573 38.213,40.12 40,40.12 C41.787,40.12 43.24,41.573 43.24,43.36 C43.24,44.796 42.296,46.002 41,46.426 L41,49 L39,49 L39,46.426 C37.704,46.002 36.76,44.796 36.76,43.36 L36.76,43.36 Z M49,38 L31,38 L31,51 L49,51 L49,48 L46,48 L46,46 L49,46 L49,43 L46,43 L46,41 L49,41 L49,38 Z M34,36 L45.999,36 L46,31 C46.001,28.384 43.143,26.002 40.004,26 L40.001,26 C38.472,26 36.928,26.574 35.763,27.575 C34.643,28.537 34,29.786 34,31.001 L34,36 Z M48,31.001 L47.999,36 L50,36 C50.553,36 51,36.448 51,37 L51,52 C51,52.552 50.553,53 50,53 L30,53 C29.447,53 29,52.552 29,52 L29,37 C29,36.448 29.447,36 30,36 L32,36 L32,31 C32.001,29.202 32.897,27.401 34.459,26.058 C35.982,24.75 38.001,24 40.001,24 L40.004,24 C44.265,24.002 48.001,27.273 48,31.001 L48,31.001 Z M19.207,55.049 L20.828,53.877 C18.093,50.097 16.581,45.662 16.396,41 L19,41 L19,39 L16.399,39 C16.598,34.366 18.108,29.957 20.828,26.198 L19.207,25.025 C16.239,29.128 14.599,33.942 14.399,39 L12,39 L12,41 L14.396,41 C14.582,46.086 16.224,50.926 19.207,55.049 L19.207,55.049 Z M53.838,59.208 C50.069,61.936 45.648,63.446 41,63.639 L41,61 L39,61 L39,63.639 C34.352,63.447 29.93,61.937 26.159,59.208 L24.988,60.828 C29.1,63.805 33.928,65.445 39,65.639 L39,68 L41,68 L41,65.639 C46.072,65.445 50.898,63.805 55.01,60.828 L53.838,59.208 Z M26.159,20.866 C29.93,18.138 34.352,16.628 39,16.436 L39,19 L41,19 L41,16.436 C45.648,16.628 50.069,18.138 53.838,20.866 L55.01,19.246 C50.898,16.27 46.072,14.63 41,14.436 L41,12 L39,12 L39,14.436 C33.928,14.629 29.1,16.269 24.988,19.246 L26.159,20.866 Z M65.599,39 C65.399,33.942 63.759,29.128 60.79,25.025 L59.169,26.198 C61.89,29.957 63.4,34.366 63.599,39 L61,39 L61,41 L63.602,41 C63.416,45.662 61.905,50.097 59.169,53.877 L60.79,55.049 C63.774,50.926 65.415,46.086 65.602,41 L68,41 L68,39 L65.599,39 Z M56.386,25.064 L64.226,17.224 L62.812,15.81 L54.972,23.65 L56.386,25.064 Z M23.612,55.01 L15.772,62.85 L17.186,64.264 L25.026,56.424 L23.612,55.01 Z M28.666,27.253 L13.825,12.413 L12.411,13.827 L27.252,28.667 L28.666,27.253 Z M54.193,52.78 L67.586,66.173 L66.172,67.587 L52.779,54.194 L54.193,52.78 Z" id="tfarch-aws-secretsmanager-AWS-Secrets-Manager_Icon_64_Squid" fill="#FFFFFF"></path></g></svg></g>
        <g transform="translate(56, 26)">
          <text fill="#f8fafc" font-size="12" font-weight="700" font-family="'Plus Jakarta Sans', 'Segoe UI', system-ui, sans-serif">deploy</text>
          <text y="16" fill="#94a3b8" font-size="9.5" font-family="'JetBrains Mono', ui-monospace, monospace">secretsmanager_…</text>
          <text y="30" fill="#DD344C" font-size="8.5" font-weight="600" font-family="'Plus Jakarta Sans', 'Segoe UI', system-ui, sans-serif">AWS Secrets Manag…</text>
        </g>
      </g>
    </g>
  </g>
  <g class="legend">
      <circle cx="46" cy="772" r="5" fill="#10b981"/>
      <text x="58" y="776" fill="#94a3b8" font-size="11" font-family="'Plus Jakarta Sans', 'Segoe UI', system-ui, sans-serif">Create (+)</text>
    
      <circle cx="176" cy="772" r="5" fill="#f59e0b"/>
      <text x="188" y="776" fill="#94a3b8" font-size="11" font-family="'Plus Jakarta Sans', 'Segoe UI', system-ui, sans-serif">Modify (~)</text>
    
      <circle cx="306" cy="772" r="5" fill="#ef4444"/>
      <text x="318" y="776" fill="#94a3b8" font-size="11" font-family="'Plus Jakarta Sans', 'Segoe UI', system-ui, sans-serif">Destroy (-)</text>
    
      <circle cx="436" cy="772" r="5" fill="#64748b"/>
      <text x="448" y="776" fill="#94a3b8" font-size="11" font-family="'Plus Jakarta Sans', 'Segoe UI', system-ui, sans-serif">Unchanged</text>
    </g>
</svg>